<svg xmlns="http://www.w3.org/2000/svg" width="512" height="512" viewBox="0 0 512 512" version="1.1"><path d="M 0 0.928 C 0 3.132, 17.630 3.466, 19.821 1.304 C 20.909 0.231, 19.270 0, 10.571 0 C 4.737 0, 0 0.416, 0 0.928 M 130 1 C 130 1.550, 130.413 2, 130.918 2 C 131.423 2, 132.449 2.235, 133.197 2.522 C 133.945 2.809, 135.444 2.374, 136.529 1.554 C 138.376 0.157, 138.233 0.062, 134.250 0.032 C 131.912 0.014, 130 0.450, 130 1 M 0.660 4.673 C 0.320 5.013, 0.043 23.339, 0.045 45.396 C 0.047 67.453, 0.375 85.050, 0.774 84.500 C 1.524 83.466, 2.135 83.337, 10.446 82.448 C 13.167 82.157, 15.979 81.432, 16.696 80.837 C 17.413 80.242, 18 80.047, 18 80.403 C 18 80.760, 19.238 80.405, 20.750 79.615 C 24.241 77.792, 29.430 72.382, 28.332 71.711 C 27.190 71.013, 19.159 68.872, 15.500 68.290 C 13.850 68.027, 12.299 67.616, 12.054 67.377 C 11.416 66.754, 10.962 64.006, 10.875 60.247 C 10.834 58.458, 10.395 56.744, 9.900 56.438 C 8.550 55.604, 8.817 51.235, 10.250 50.703 C 11.158 50.366, 11.007 49.729, 9.696 48.370 C 8.081 46.696, 7.961 46.684, 8.553 48.250 C 8.935 49.261, 8.746 50, 8.107 50 C 7.498 50, 7.007 49.438, 7.015 48.750 C 7.033 47.333, 8.961 44.026, 8.985 45.372 C 8.993 45.852, 9.637 45.716, 10.416 45.069 C 11.541 44.136, 11.929 44.266, 12.300 45.697 C 12.625 46.949, 12.803 47.038, 12.884 45.991 C 12.948 45.160, 13.900 43.919, 15 43.232 C 16.663 42.194, 17 42.233, 17 43.467 C 17 44.636, 17.530 44.749, 19.500 44 C 20.875 43.477, 22.014 43.376, 22.032 43.775 C 22.049 44.174, 22.785 43.600, 23.666 42.500 C 24.968 40.876, 25.156 40.829, 24.666 42.250 C 24.271 43.396, 24.570 44, 25.531 44 C 26.339 44, 26.929 43.662, 26.841 43.250 C 26.754 42.837, 27.035 41.693, 27.465 40.707 C 27.895 39.721, 27.982 38.648, 27.657 38.324 C 26.732 37.399, 31.399 34.149, 34.189 33.775 C 35.572 33.590, 37.478 32.665, 38.424 31.719 C 39.369 30.774, 40.673 29.986, 41.321 29.968 C 43.084 29.921, 47.588 25.659, 48.220 23.441 C 48.524 22.374, 49.092 20.600, 49.481 19.500 C 49.903 18.307, 49.843 17.974, 49.332 18.674 C 48.733 19.495, 48.132 19.119, 47.332 17.423 C 46.702 16.089, 46.595 15.250, 47.094 15.558 C 47.592 15.866, 48 15.694, 48 15.176 C 48 13.331, 43.547 12.968, 42.250 14.707 C 41.267 16.024, 40.997 16.074, 40.985 14.941 C 40.975 14.019, 40.705 13.886, 40.235 14.573 C 38.921 16.491, 35.644 17.281, 27.619 17.614 C 22.729 17.817, 18.853 18.522, 17.405 19.471 C 14.190 21.577, 10.359 21.385, 6.368 18.918 C 2.946 16.803, 2.650 15.928, 2.972 8.852 C 3.130 5.383, 1.997 3.336, 0.660 4.673 M 147.963 14.545 C 147.276 15.372, 146.497 15.830, 146.230 15.564 C 145.964 15.297, 144.173 15.736, 142.251 16.540 C 140.329 17.343, 137.487 18, 135.937 18 C 134.387 18, 132.840 18.450, 132.500 19 C 132.160 19.550, 130.892 20, 129.682 20 C 126.832 20, 124.427 23.605, 126.007 25.509 C 126.624 26.252, 128.088 26.676, 129.260 26.450 C 130.432 26.224, 133.374 27.201, 135.797 28.621 C 139.828 30.984, 140.555 31.103, 144.351 30.030 C 149.602 28.546, 152.186 26.376, 153.684 22.193 C 154.648 19.503, 154.614 18.789, 153.498 18.361 C 152.743 18.071, 152.358 17.231, 152.641 16.494 C 153.459 14.363, 149.487 12.708, 147.963 14.545 M 119.270 42.555 C 119.693 43.005, 118.343 44.218, 116.270 45.251 C 108.578 49.085, 107.483 49.867, 109.036 50.417 C 109.841 50.702, 112.525 51.118, 115 51.340 C 117.475 51.562, 111.400 51.530, 101.500 51.268 C 82.352 50.762, 72.805 51.874, 59.875 56.119 C 52.665 58.486, 42.321 63.853, 36.048 68.482 C 31.384 71.924, 17.578 85.528, 14.212 90 C 10.622 94.769, 6.560 102.894, 7.366 103.695 C 8.650 104.971, 27.803 104.554, 35.500 103.082 C 50.773 100.161, 73.440 90.763, 90 80.486 C 91.925 79.292, 93.950 78.131, 94.500 77.907 C 95.050 77.683, 98.792 75.250, 102.815 72.500 C 114.714 64.367, 113.777 64.631, 132.417 64.175 C 151.643 63.705, 162.060 64.812, 178.840 69.108 C 198.716 74.197, 211.016 81.524, 219.303 93.212 C 228.462 106.131, 232.966 119.237, 232.974 133 C 232.982 146.368, 228.797 156.005, 218.445 166.458 C 209.616 175.374, 202.880 179.458, 179.677 189.964 C 139.432 208.187, 126.589 215.044, 112.731 225.707 C 102.509 233.572, 95.676 241.339, 90.267 251.239 C 82.939 264.651, 81.549 269.541, 81.522 282 C 81.503 291.256, 81.869 293.531, 84.614 301.200 C 88.790 312.871, 99.020 328.084, 110.456 339.633 C 124.479 353.795, 142.502 364.548, 163.500 371.280 C 182.453 377.357, 189.120 378.331, 212 378.363 C 234.104 378.395, 242.961 377.139, 261.154 371.391 C 269.536 368.744, 287 361.064, 287 360.026 C 287 359.702, 284.357 356.822, 281.127 353.626 L 275.254 347.814 271.377 350.223 C 264.219 354.671, 246.566 361.752, 235.486 364.619 C 225.360 367.240, 223.052 367.464, 206 367.481 C 191.514 367.496, 185.873 367.107, 180 365.688 C 133.056 354.344, 99.749 327.660, 91.042 294.421 C 85.012 271.396, 91.928 254.444, 116.018 233.203 C 129.097 221.671, 140.553 214.868, 160.500 206.787 C 188.017 195.639, 208.141 185.201, 217.492 177.226 C 234.456 162.758, 239.543 151.879, 239.339 130.500 C 239.212 117.148, 237.445 109.744, 231.390 97.192 C 223.622 81.092, 212.064 71.490, 190.115 62.900 C 171.388 55.571, 153.376 52.059, 133.619 51.884 C 126.404 51.820, 121.329 51.554, 122.343 51.293 C 123.674 50.950, 124.025 50.218, 123.606 48.659 C 123.288 47.471, 123.021 46.046, 123.014 45.491 C 123.006 44.935, 121.987 43.864, 120.750 43.109 C 119.513 42.355, 118.846 42.105, 119.270 42.555 M 4.141 46 C 4.141 46.825, 4.527 48.400, 5 49.500 C 5.542 50.761, 5.859 50.945, 5.859 50 C 5.859 49.175, 5.473 47.600, 5 46.500 C 4.458 45.239, 4.141 45.055, 4.141 46 M 38 46.531 C 38 48.149, 39.563 48.517, 40.435 47.105 C 40.740 46.612, 40.316 45.952, 39.494 45.636 C 38.587 45.288, 38 45.639, 38 46.531 M 2.639 53.498 C 1.603 56.199, 1.887 57, 3.883 57 C 5.867 57, 7.463 53.404, 5.906 52.442 C 5.408 52.134, 4.993 52.471, 4.985 53.191 C 4.972 54.251, 4.808 54.246, 4.124 53.166 C 3.449 52.102, 3.149 52.169, 2.639 53.498 M 45.603 53.477 C 43.460 54.240, 40.985 55.617, 40.103 56.537 C 38.613 58.090, 38.782 58.164, 42.500 57.592 C 44.700 57.253, 47.314 56.956, 48.308 56.930 C 49.941 56.889, 54 53.730, 54 52.500 C 54 51.562, 49.508 52.085, 45.603 53.477 M 276.071 66.744 C 272.483 74.619, 270.540 103.865, 272.999 112.996 C 273.685 115.542, 273.729 118.889, 273.127 122.692 C 271.994 129.855, 272.471 144.322, 274.032 150.117 C 274.671 152.492, 276.059 156.275, 277.117 158.525 L 279.039 162.614 268.074 185.124 C 251.083 220.003, 247.625 232.666, 247.626 260 C 247.627 277.584, 248.202 280.720, 255.330 302 C 256.712 306.125, 258.822 312.650, 260.020 316.500 C 265.170 333.051, 277.449 350.104, 293 362.304 C 302.891 370.064, 307.010 373.876, 306.108 374.433 C 305.659 374.711, 304.247 373.827, 302.971 372.469 C 301.695 371.111, 299.877 370, 298.931 370 C 296.303 370, 290.997 375.468, 291.022 378.151 C 291.053 381.499, 294.342 388.314, 299.344 395.396 C 314.608 417.010, 323.992 434.690, 335.534 463.583 C 340.789 476.737, 345.902 488.321, 346.897 489.325 C 348.524 490.966, 348.861 490.996, 350.241 489.616 C 352.159 487.698, 351.640 476.652, 349.329 470.189 C 347.376 464.725, 348.332 463.500, 350.538 468.642 C 351.939 471.909, 352.564 476.503, 352.934 486.250 C 353.030 488.779, 355.203 488.344, 357.379 485.359 C 359.306 482.715, 359.313 481.750, 357.505 467 C 357.047 463.262, 357.133 462.911, 358.011 464.929 C 358.592 466.265, 359.342 469.978, 359.677 473.179 C 360.011 476.381, 360.509 479, 360.782 479 C 362.506 479, 363.941 474.694, 363.968 469.438 C 364.045 454.729, 350.310 426.573, 328.145 396 C 323.958 390.225, 320.187 385.350, 319.766 385.167 C 317.851 384.333, 319.578 382.970, 327.250 379.259 C 336.729 374.675, 342.260 369.629, 345.622 362.500 C 348.735 355.899, 348.911 342.399, 346.029 331.115 C 342.241 316.276, 335.173 300.790, 328.291 292.250 C 326.407 289.913, 325.332 288, 325.901 288 C 328.652 288, 337.311 302.253, 342.303 315 C 348.240 330.158, 349.478 335.886, 349.489 348.250 C 349.495 354.712, 349.542 360, 349.593 360 C 349.645 360, 352.120 359.142, 355.093 358.093 C 376.279 350.621, 390.640 334.285, 391.791 316.349 C 393.204 294.338, 377.977 266.985, 356.705 253.320 C 349.331 248.584, 348.418 247.149, 343.955 233.292 L 341.660 226.168 337.256 229.530 C 327.273 237.153, 314.430 240.998, 304.608 239.304 C 298.570 238.263, 290.306 235.360, 291.106 234.561 C 291.333 234.334, 294.215 235.062, 297.509 236.179 C 307.026 239.405, 317.629 238.476, 327.615 233.541 C 337.123 228.842, 347.020 219.295, 351.858 210.158 C 355.236 203.778, 355.180 202.493, 351.500 201.838 C 349.933 201.560, 349.433 200.565, 349.193 197.241 C 349.023 194.909, 348.541 193, 348.121 193 C 347.700 193, 345.229 193.725, 342.629 194.611 C 338.294 196.088, 337.755 196.089, 336.132 194.620 C 334.490 193.133, 334.204 193.233, 332.153 196.006 C 330.938 197.650, 327.594 200.233, 324.722 201.747 C 320.014 204.228, 318.496 204.499, 309.300 204.499 C 301.993 204.500, 298.731 204.114, 297.800 203.138 C 296.719 202.005, 296.837 201.864, 298.500 202.304 C 303.566 203.642, 309.981 203.932, 315.232 203.061 C 321.298 202.055, 328 199.352, 328 197.912 C 328 196.578, 323.120 194.385, 316.265 192.638 C 308.679 190.705, 301.013 186.952, 295 182.229 C 289.767 178.118, 283.028 170.948, 283.038 169.500 C 283.041 168.950, 284.947 170.544, 287.272 173.042 C 295.999 182.416, 305.305 188.332, 315.500 190.984 C 318.250 191.700, 322.676 193.193, 325.335 194.302 L 330.170 196.319 332.356 193.578 C 334.541 190.838, 334.543 190.838, 336.376 192.862 L 338.209 194.888 343.235 192.908 C 345.999 191.818, 348.539 191.199, 348.880 191.533 C 349.221 191.866, 349.970 194.020, 350.544 196.320 C 351.347 199.537, 352.119 200.577, 353.895 200.833 C 355.841 201.113, 356.134 201.637, 355.762 204.169 C 355.165 208.236, 357.486 209.004, 370.315 208.985 C 381.225 208.968, 382.562 208.605, 383.143 205.500 C 383.386 204.199, 384.451 203.392, 386.192 203.190 C 388.301 202.946, 389.003 202.204, 389.508 199.690 C 390.888 192.822, 390.961 192.732, 394.604 193.323 C 396.943 193.703, 398 193.487, 398 192.628 C 398 191.943, 398.639 190.509, 399.419 189.441 C 400.810 187.539, 400.891 187.549, 403.417 189.922 L 405.994 192.343 410.747 189.023 C 424.272 179.575, 433.132 162.818, 433.230 146.500 C 433.295 135.593, 429.951 122.612, 424.405 112.250 C 419.646 103.358, 419.324 101.510, 423.680 108.092 C 426.322 112.085, 426.409 112.128, 427.273 109.842 C 430.439 101.464, 432.225 79.047, 430.471 69.698 C 429.661 65.381, 428.563 65.027, 416 65.028 C 403.521 65.030, 386.376 69.052, 383.374 72.682 C 382.493 73.747, 381.620 73.805, 379.374 72.945 C 368.365 68.731, 344.808 66.717, 334 69.064 C 324.407 71.148, 322.187 71.223, 317.360 69.626 C 308.081 66.556, 293.597 64, 285.481 64 C 277.554 64, 277.285 64.078, 276.071 66.744 M 121.579 65.894 C 119.743 66.613, 119.759 66.718, 121.943 68.248 C 124.219 69.842, 126.881 69.574, 128.184 67.621 C 129.785 65.221, 125.893 64.203, 121.579 65.894 M 99 76.430 C 85.135 85.011, 62.149 96.596, 52.494 99.869 C 47.541 101.549, 39.292 103.716, 34.162 104.686 C 24.975 106.422, 24.869 106.475, 27.029 108.224 C 29.460 110.193, 28.916 110.561, 25.934 108.965 C 24.870 108.395, 24.014 108.283, 24.031 108.715 C 24.078 109.869, 29 113.262, 29 112.140 C 29 111.616, 29.909 111.425, 31.021 111.716 C 32.530 112.110, 32.773 112.568, 31.981 113.523 C 31.153 114.521, 32.016 114.952, 35.914 115.488 C 38.661 115.866, 41.340 115.908, 41.869 115.581 C 42.397 115.255, 43.016 115.548, 43.244 116.232 C 43.572 117.217, 44.216 117.222, 46.329 116.260 C 48.089 115.458, 49 115.401, 49 116.093 C 49 116.670, 49.707 116.436, 50.571 115.571 C 51.436 114.707, 52.973 114, 53.988 114 C 55.003 114, 56.060 113.438, 56.338 112.750 C 56.741 111.750, 56.858 111.750, 56.921 112.750 C 56.964 113.438, 57.842 114, 58.870 114 C 60.243 114, 61.088 115.241, 62.047 118.670 C 62.814 121.406, 63.592 122.743, 63.927 121.899 C 64.682 120, 67.500 120.079, 67.500 121.999 C 67.500 122.824, 68.823 124.174, 70.440 124.999 C 73.691 126.658, 75.353 129.457, 72.420 128.331 C 71.295 127.899, 70.910 128.045, 71.339 128.739 C 72.372 130.411, 63.538 134.311, 60.777 133.402 C 59.525 132.990, 54.449 132.601, 49.497 132.538 C 44.546 132.475, 40.003 132.120, 39.402 131.748 C 38.801 131.377, 36.530 130.789, 34.356 130.441 C 31.388 129.966, 30.074 130.206, 29.079 131.404 C 28.351 132.282, 27.160 133, 26.432 133 C 25.704 133, 24.508 134.238, 23.772 135.750 C 22.674 138.009, 21.877 138.446, 19.309 138.198 C 17.589 138.032, 15.890 138.370, 15.532 138.948 C 15.174 139.527, 13.896 139.986, 12.691 139.968 C 10.186 139.932, 6.706 137.627, 7.682 136.651 C 8.040 136.293, 7.808 136, 7.167 136 C 6.525 136, 5.993 136.563, 5.985 137.250 C 5.973 138.174, 5.746 138.148, 5.114 137.149 C 3.913 135.255, 0 138.673, 0 141.615 C 0 144.299, 1.826 145.065, 6.442 144.316 C 8.399 143.998, 10 144.140, 10 144.630 C 10 145.121, 12.813 145.588, 16.250 145.668 C 22.825 145.821, 28 147.267, 28 148.950 C 28 149.604, 28.866 149.621, 30.500 149 C 32.168 148.366, 33 148.394, 33 149.084 C 33 149.653, 33.417 149.860, 33.928 149.545 C 34.438 149.229, 36.125 150.139, 37.678 151.566 C 39.230 152.994, 39.990 153.906, 39.368 153.594 C 38.631 153.225, 38.291 154.124, 38.393 156.168 C 38.516 158.600, 39.061 159.386, 40.810 159.653 C 42.966 159.982, 43.039 159.774, 42.418 155.096 C 41.849 150.807, 42.024 150.057, 43.818 149.097 C 46.746 147.530, 57.017 147.742, 61.916 149.470 C 67.037 151.277, 69.901 153.825, 68.078 154.952 C 67.148 155.527, 67.254 155.883, 68.498 156.361 C 71.033 157.334, 72.197 157.127, 71.405 155.845 C 70.959 155.124, 71.131 154.963, 71.862 155.415 C 72.506 155.813, 72.752 156.592, 72.410 157.146 C 72.004 157.803, 73.903 157.966, 77.857 157.614 C 81.196 157.317, 84.178 157.479, 84.484 157.973 C 85.007 158.820, 85.712 158.932, 91.219 159.046 C 92.440 159.071, 93.783 159.633, 94.204 160.296 C 94.772 161.189, 94.973 161.145, 94.985 160.128 C 94.997 159.060, 95.313 159.015, 96.411 159.926 C 97.362 160.716, 98.031 160.760, 98.462 160.061 C 99.424 158.505, 105.184 159.456, 115 162.792 C 115.825 163.073, 117.130 163.429, 117.900 163.585 C 118.670 163.740, 119.628 164.398, 120.029 165.047 C 120.568 165.919, 120.900 165.871, 121.303 164.863 C 121.750 163.745, 122.041 163.770, 122.924 165 C 123.880 166.333, 124.120 166.333, 125.076 165 C 125.853 163.917, 126.289 163.834, 126.644 164.704 C 126.999 165.572, 128.372 165.307, 131.568 163.755 C 134.006 162.570, 136 161.215, 136 160.742 C 136 160.269, 136.453 160.162, 137.007 160.504 C 137.561 160.847, 138.284 160.423, 138.614 159.563 C 138.944 158.704, 140.317 158, 141.666 158 C 143.361 158, 143.886 157.614, 143.367 156.750 C 142.795 155.797, 142.959 155.765, 144.058 156.612 C 144.851 157.224, 146.756 158.024, 148.291 158.391 C 149.826 158.758, 150.812 159.495, 150.482 160.029 C 150.152 160.563, 150.359 161, 150.941 161 C 151.523 161, 152.007 161.787, 152.015 162.750 C 152.028 164.202, 152.187 164.252, 152.949 163.048 C 153.455 162.249, 153.603 161.167, 153.280 160.643 C 152.956 160.119, 153.218 160.017, 153.862 160.415 C 155.911 161.681, 160.212 162.152, 159.521 161.034 C 159.170 160.465, 159.359 160, 159.941 160 C 160.523 160, 161 160.408, 161 160.906 C 161 161.405, 161.895 161.579, 162.989 161.293 C 164.083 161.007, 164.734 160.379, 164.437 159.898 C 163.666 158.650, 167.349 160.133, 168.235 161.427 C 168.677 162.074, 168.975 161.805, 168.985 160.750 C 168.996 159.476, 169.815 159, 172 159 C 173.907 159, 175 158.489, 175 157.598 C 175 156.827, 176.350 155.725, 178 155.150 C 179.821 154.515, 181 154.476, 181 155.052 C 181 155.573, 180.550 156, 180 156 C 179.450 156, 179 156.450, 179 157 C 179 157.550, 179.900 158, 181 158 C 182.417 158, 183 157.333, 183 155.714 C 183 152.691, 186.944 152.451, 187.116 155.464 C 187.212 157.150, 187.311 157.200, 187.689 155.750 C 187.941 154.787, 188.720 154, 189.421 154 C 190.121 154, 191.227 152.988, 191.878 151.750 C 192.529 150.512, 192.848 150.258, 192.587 151.185 C 192.326 152.112, 192.650 153.089, 193.306 153.356 C 194.120 153.688, 194.064 153.867, 193.128 153.921 C 192.022 153.985, 191.997 154.291, 193 155.500 C 193.685 156.325, 193.852 157.032, 193.372 157.070 C 191.697 157.205, 196.517 158.859, 198.500 158.830 C 200.203 158.805, 200.158 158.704, 198.191 158.150 C 195.696 157.448, 195.531 155.353, 198 155.727 C 202.677 156.435, 207.512 153.065, 203.750 151.720 C 203.063 151.474, 204.075 151.330, 206 151.399 C 207.925 151.469, 210.092 151.902, 210.817 152.363 C 211.541 152.823, 212.403 152.930, 212.733 152.600 C 213.063 152.270, 212.808 152, 212.167 152 C 211.525 152, 211 151.514, 211 150.921 C 211 150.232, 212.131 150.090, 214.125 150.527 C 216.298 151.005, 217.042 150.877, 216.566 150.107 C 216.190 149.498, 216.359 149, 216.941 149 C 217.523 149, 218 149.450, 218 150 C 218 150.550, 218.900 151, 220 151 C 221.387 151, 222.022 150.310, 222.070 148.750 C 222.137 146.603, 222.180 146.592, 223 148.500 C 223.473 149.600, 223.891 150.012, 223.930 149.417 C 223.968 148.821, 224.675 148.333, 225.500 148.333 C 226.325 148.333, 227.014 148.821, 227.030 149.417 C 227.074 150.967, 229.031 147.379, 230.017 143.940 C 230.504 142.242, 230.466 140.788, 229.926 140.454 C 229.067 139.923, 228.511 142.225, 228.956 144.472 C 229.061 145.007, 228.215 144.599, 227.074 143.567 C 225.922 142.525, 225 142.204, 225 142.845 C 225 145.299, 222.472 143.343, 221.970 140.500 C 221.250 136.430, 222.891 131.021, 224.641 131.693 C 225.389 131.979, 226 131.716, 226 131.107 C 226 130.498, 226.338 130.053, 226.750 130.118 C 230.864 130.768, 231.296 130.108, 230.671 124.124 C 229.434 112.290, 224.818 104.735, 222.020 109.963 C 220.890 112.075, 222.081 114.403, 224.500 114.812 C 225.050 114.904, 225.500 116.888, 225.500 119.220 C 225.500 123.691, 223.857 125.001, 220.192 123.456 C 217.913 122.495, 213.949 122.274, 213.451 123.079 C 213.229 123.438, 210.321 123.565, 206.987 123.361 C 201.960 123.054, 200.555 123.336, 198.751 125.017 C 197.554 126.132, 194.806 127.327, 192.644 127.673 C 189.515 128.173, 188.493 128.883, 187.637 131.151 C 187.045 132.718, 186.210 134, 185.781 134 C 185.351 134, 184.068 134.932, 182.929 136.071 C 180.566 138.434, 178.632 138.971, 171.250 139.312 C 167.272 139.496, 166 139.211, 166 138.138 C 166 136.403, 168.912 134.075, 171.135 134.032 C 174.013 133.976, 176.229 129.317, 175.482 124.893 C 174.865 121.243, 174.480 120.853, 170.407 119.764 C 167.983 119.116, 166 118.262, 166 117.868 C 166 117.297, 160.790 117.321, 154.691 117.920 C 154.246 117.964, 154.140 118.418, 154.456 118.928 C 154.771 119.438, 154.107 120.149, 152.981 120.506 C 149.663 121.559, 147 125.134, 147 128.534 C 147 132.389, 143.902 135.604, 141.287 134.463 C 140.304 134.034, 139.162 133.754, 138.750 133.841 C 138.338 133.929, 138 133.625, 138 133.167 C 138 132.708, 137.438 132.286, 136.750 132.228 C 136.063 132.169, 133.548 131.633, 131.163 131.036 C 127.116 130.023, 126.698 130.114, 124.901 132.399 C 123.842 133.745, 121.519 135.163, 119.738 135.549 C 117.957 135.935, 116.275 136.568, 116 136.955 C 114.442 139.149, 103.612 143.220, 99.749 143.064 C 93.386 142.807, 93 142.737, 93 141.833 C 93 141.375, 92.357 141, 91.571 141 C 90.786 141, 89.538 140.438, 88.798 139.750 C 88.058 139.063, 86.788 138.351, 85.976 138.169 C 85.164 137.987, 84.173 137.258, 83.772 136.548 C 83.349 135.797, 81.779 135.404, 80.022 135.609 C 78.360 135.803, 77 135.493, 77 134.921 C 77 134.350, 77.403 134.131, 77.895 134.435 C 79.099 135.179, 80.074 132.428, 79.378 130.250 C 78.620 127.877, 76.970 123.895, 75.822 121.665 C 75.061 120.188, 75.222 119.896, 76.644 120.170 C 77.617 120.357, 78.705 121.633, 79.063 123.005 L 79.713 125.500 80.444 122.500 C 81.609 117.718, 81.835 117.344, 81.953 120 C 82.057 122.362, 82.141 122.398, 83.465 120.650 C 84.236 119.632, 85.377 119.115, 86 119.500 C 86.623 119.885, 87.764 119.368, 88.535 118.350 C 89.846 116.619, 89.938 116.676, 89.968 119.250 C 89.986 120.763, 90.436 122, 90.969 122 C 91.501 122, 91.678 121.325, 91.362 120.500 C 91.045 119.675, 91.284 119, 91.893 119 C 92.502 119, 93 119.427, 93 119.948 C 93 121.131, 99.208 119.105, 100.235 117.586 C 100.730 116.854, 100.974 116.920, 100.985 117.789 C 100.995 118.624, 101.757 118.373, 103.151 117.074 C 105.034 115.319, 105.128 114.854, 103.901 113.343 C 102.768 111.946, 102.760 111.773, 103.862 112.436 C 104.611 112.887, 105.511 112.861, 105.862 112.378 C 106.852 111.016, 110.805 109, 112.486 109 C 113.319 109, 114 108.585, 114 108.078 C 114 107.017, 120.879 104.472, 122.750 104.841 C 123.438 104.977, 124 104.448, 124 103.665 C 124 102.883, 125.350 101.683, 127 101 C 128.650 100.317, 130 99.412, 130 98.990 C 130 98.385, 134.065 97.163, 138.024 96.578 C 140.198 96.256, 144 91.821, 144 89.606 C 144 88.173, 144.563 86.993, 145.250 86.985 C 146.229 86.973, 146.234 86.800, 145.275 86.191 C 144.602 85.763, 143.901 84.432, 143.718 83.232 C 143.326 80.666, 142.007 79.030, 141.985 81.083 C 141.972 82.251, 141.796 82.236, 140.985 81 C 140.159 79.742, 139.857 79.722, 139.112 80.878 C 138.623 81.636, 137.723 81.947, 137.112 81.569 C 136.500 81.191, 136 81.322, 136 81.859 C 136 82.397, 133.007 83.519, 129.349 84.354 C 125.691 85.188, 122.419 86.323, 122.077 86.875 C 121.047 88.542, 114.718 87.885, 111.166 85.743 C 107.922 83.788, 107.840 83.575, 108.165 77.949 C 108.348 74.767, 108.273 71.941, 107.999 71.667 C 107.724 71.393, 103.675 73.537, 99 76.430 M 389 76.449 C 389 76.724, 390.350 77.647, 392 78.500 C 393.650 79.353, 395 79.826, 395 79.551 C 395 79.276, 393.650 78.353, 392 77.500 C 390.350 76.647, 389 76.174, 389 76.449 M 0 97.062 C 0 105.344, 0.807 107.739, 2.613 104.816 C 3.118 104, 3.597 104.233, 4.156 105.566 C 4.920 107.387, 4.954 107.378, 4.736 105.415 C 4.608 104.268, 6.191 100.488, 8.252 97.015 C 12.367 90.082, 12.591 89.385, 10.750 89.225 C 10.063 89.165, 7.362 88.893, 4.750 88.620 L 0 88.123 0 97.062 M 509.092 102.729 C 508.502 103.743, 508.048 103.956, 508.030 103.227 C 508.007 102.266, 507.429 102.328, 505.670 103.480 C 504.389 104.320, 503.114 104.781, 502.838 104.505 C 502.562 104.229, 501.739 105.120, 501.008 106.485 C 500.278 107.850, 498.852 109.230, 497.840 109.551 C 496.828 109.872, 496 110.581, 496 111.126 C 496 111.672, 496.450 111.840, 497 111.500 C 497.550 111.160, 498 111.359, 498 111.941 C 498 112.523, 497.438 113.007, 496.750 113.015 C 495.845 113.026, 495.880 113.271, 496.878 113.904 C 497.636 114.384, 497.993 115.202, 497.672 115.722 C 497.351 116.241, 497.631 116.671, 498.294 116.676 C 498.957 116.681, 500.510 117.011, 501.744 117.408 C 503.527 117.983, 503.864 117.810, 503.387 116.565 C 502.959 115.450, 503.392 115, 504.893 115 C 506.052 115, 507 114.559, 507 114.019 C 507 113.480, 508.125 112.756, 509.500 112.411 C 512.073 111.765, 512.976 110.012, 510.750 109.985 C 509.773 109.973, 509.779 109.792, 510.779 109.158 C 512.091 108.325, 512.141 102.205, 510.843 101.403 C 510.447 101.158, 509.659 101.755, 509.092 102.729 M 249.645 106.688 C 249.199 107.135, 248.533 107.507, 248.167 107.515 C 247.800 107.523, 246.244 108.800, 244.708 110.353 C 242.311 112.776, 241.688 112.986, 240.307 111.840 C 238.848 110.629, 238.782 110.969, 239.599 115.503 C 240.095 118.251, 240.499 127.224, 240.497 135.443 C 240.496 143.661, 240.646 149.600, 240.831 148.640 C 241.098 147.255, 241.460 147.137, 242.584 148.069 C 243.599 148.912, 244 148.927, 244 148.122 C 244 147.505, 244.477 147, 245.059 147 C 245.641 147, 245.840 147.450, 245.500 148 C 245.160 148.550, 245.610 149, 246.500 149 C 247.428 149, 247.826 148.528, 247.434 147.893 C 246.974 147.148, 247.444 147.006, 248.868 147.458 C 250.533 147.987, 250.857 147.791, 250.379 146.546 C 249.888 145.266, 250.417 145.013, 253.136 145.231 C 255.864 145.449, 256.444 145.169, 256.206 143.750 C 256.045 142.787, 256.409 142, 257.015 142 C 257.622 142, 257.838 142.453, 257.496 143.007 C 257.153 143.561, 257.574 144.283, 258.431 144.612 C 259.288 144.941, 259.758 145.583, 259.476 146.038 C 259.195 146.494, 260.307 146.829, 261.948 146.782 C 263.589 146.736, 264.714 146.347, 264.449 145.918 C 264.184 145.489, 264.425 144.856, 264.984 144.510 C 265.543 144.165, 266.007 144.696, 266.015 145.691 C 266.028 147.213, 266.180 147.263, 266.974 146.008 C 268.322 143.876, 266.479 142.357, 264.518 143.985 C 262.519 145.644, 262.140 145.128, 263.063 142 C 263.469 140.625, 263.845 140.048, 263.900 140.719 C 263.955 141.389, 264.628 141.696, 265.396 141.401 C 266.164 141.107, 267.467 141.829, 268.292 143.006 C 269.121 144.191, 270.064 144.706, 270.402 144.159 C 270.738 143.615, 270.616 143.020, 270.132 142.835 C 269.422 142.565, 270.230 133.036, 272.142 119.113 C 272.446 116.898, 270.966 108.834, 269.918 107 C 269.244 105.820, 269.054 105.795, 269.030 106.880 C 269.007 107.949, 267.930 108.113, 264.250 107.609 C 253.236 106.098, 250.413 105.920, 249.645 106.688 M 71.557 119.908 C 71.249 120.407, 71.418 121.869, 71.935 123.158 C 72.997 125.810, 73.189 125.629, 73.425 121.750 C 73.590 119.045, 72.658 118.126, 71.557 119.908 M 316.419 132.031 C 308.804 134.350, 303.847 142.775, 302.551 155.600 L 301.935 161.700 310.227 162.337 C 319.061 163.016, 333.685 166.313, 338.279 168.661 C 339.808 169.442, 341.496 169.812, 342.029 169.482 C 343.816 168.378, 343.152 153.421, 341.074 147.952 C 336.365 135.560, 326.260 129.035, 316.419 132.031 M 315.357 133.952 C 313.127 134.950, 310.387 137.057, 309.269 138.633 C 305.703 143.662, 303.368 152.851, 303.903 159.750 C 303.963 160.526, 305.518 161, 308 161 L 312 161 312 155.538 C 312 149.236, 315.026 140.311, 318.603 136.059 C 321.701 132.378, 320.546 131.628, 315.357 133.952 M 344.785 137.135 C 345.679 139.410, 346.570 140.790, 346.766 140.203 C 347.109 139.173, 344.357 133, 343.555 133 C 343.338 133, 343.892 134.861, 344.785 137.135 M 405 135.285 C 398.790 138.405, 392 154.040, 392 165.222 C 392 172.078, 390.644 171.749, 403.960 168.123 C 408.063 167.006, 413.805 165.793, 416.720 165.429 C 423.061 164.637, 423.558 163.566, 422.722 152.506 C 422.099 144.270, 420.451 140.399, 415.959 136.619 C 412.572 133.769, 408.907 133.323, 405 135.285 M 394.077 139.077 C 392.824 141.307, 392.037 143.370, 392.329 143.663 C 392.621 143.955, 393.823 142.307, 395 140 C 397.781 134.549, 397.039 133.807, 394.077 139.077 M 406.250 135.662 C 404.408 136.406, 404.730 137.696, 406.898 138.263 C 410.949 139.323, 412.500 143.735, 412.500 154.203 L 412.500 163.998 415.559 163.999 C 421.323 164.001, 422.403 162.243, 421.645 154.086 C 420.854 145.581, 419.103 140.927, 415.405 137.499 C 412.888 135.167, 409.275 134.442, 406.250 135.662 M 329.611 139.532 C 326.409 142.734, 326.355 152.432, 329.532 153.651 C 335.946 156.112, 340.620 146.600, 335.927 140.635 C 333.567 137.634, 331.815 137.328, 329.611 139.532 M 400.539 141.360 C 399.088 143.262, 397.811 146.096, 397.701 147.659 C 397.527 150.119, 397.896 150.545, 400.451 150.836 C 402.414 151.059, 403.836 150.577, 404.701 149.395 C 406.430 147.030, 406.359 140.543, 404.588 139.073 C 403.454 138.132, 402.658 138.581, 400.539 141.360 M 269 147.500 C 269 148.325, 269.661 149, 270.469 149 C 271.363 149, 271.712 148.414, 271.362 147.500 C 271.045 146.675, 270.384 146, 269.893 146 C 269.402 146, 269 146.675, 269 147.500 M 207.122 152.904 C 206.364 153.384, 206.055 154.280, 206.436 154.896 C 206.925 155.687, 207.549 155.594, 208.564 154.579 C 210.966 152.177, 210.015 151.071, 207.122 152.904 M 216 153 L 213.500 153.801 216.250 153.900 C 217.762 153.955, 219 153.550, 219 153 C 219 152.450, 218.887 152.045, 218.750 152.100 C 218.613 152.155, 217.375 152.560, 216 153 M 131.441 166.552 C 129.555 168.060, 129.563 168.086, 131.750 167.484 C 133.065 167.123, 134 167.309, 134 167.933 C 134 168.957, 132.724 169.377, 130.417 169.113 C 129.821 169.045, 129.333 169.666, 129.333 170.494 C 129.333 171.322, 129.933 172, 130.667 172 C 132.356 172, 132.437 173.989, 130.750 174.030 C 128.946 174.074, 133.149 176.368, 135.343 176.537 C 136.356 176.616, 137.422 176.065, 137.710 175.314 C 138.031 174.477, 138.672 174.283, 139.367 174.812 C 140.564 175.723, 144.985 173.912, 145.313 172.376 C 145.416 171.894, 147.188 171.651, 149.250 171.836 C 152.784 172.153, 154.262 170.898, 152 169.500 C 151.450 169.160, 150.993 169.471, 150.985 170.191 C 150.974 171.147, 150.768 171.184, 150.225 170.329 C 149.815 169.685, 148.134 168.836, 146.490 168.441 C 144.845 168.046, 143.050 167.461, 142.500 167.140 C 140.708 166.094, 138.563 166.089, 137.920 167.129 C 137.527 167.765, 136.699 167.556, 135.717 166.574 C 133.788 164.645, 133.826 164.645, 131.441 166.552 M 104 170.031 C 104 170.564, 104.563 171.007, 105.250 171.015 C 106.083 171.026, 106 171.354, 105 172 C 103.718 172.828, 103.754 172.972, 105.250 172.985 C 107.387 173.003, 107.579 170.436, 105.500 169.638 C 104.675 169.322, 104 169.499, 104 170.031 M 81.250 183.500 C 81.250 184.875, 81.644 186, 82.125 186 C 82.606 186, 83 185.564, 83 185.031 C 83 184.499, 83.629 184.304, 84.399 184.600 C 85.168 184.895, 86.092 184.661, 86.451 184.080 C 86.836 183.457, 86.519 183.247, 85.681 183.569 C 84.898 183.869, 83.989 183.414, 83.660 182.557 C 82.733 180.141, 81.250 180.721, 81.250 183.500 M 165.796 182.750 C 165.604 183.713, 165.629 185.787, 165.853 187.360 C 166.228 190, 166.520 190.177, 169.652 189.669 C 171.551 189.361, 172.800 189.514, 172.489 190.018 C 172.183 190.512, 174.190 189.979, 176.948 188.833 C 181.327 187.013, 182.868 185, 179.882 185 C 179.332 185, 179.203 185.520, 179.595 186.155 C 180.051 186.892, 179.868 187.037, 179.088 186.554 C 178.416 186.139, 178.106 185.561, 178.398 185.268 C 178.691 184.976, 178.480 183.896, 177.930 182.869 C 176.512 180.220, 166.323 180.120, 165.796 182.750 M 449.710 189 C 450.105 190.510, 451.002 190.963, 453.367 190.850 C 456.389 190.706, 456.403 190.686, 453.750 190.284 C 452.223 190.052, 451 189.230, 451 188.434 C 451 187.645, 450.592 187, 450.094 187 C 449.595 187, 449.423 187.900, 449.710 189 M 412.046 190.466 C 410.207 191.822, 408.256 193.081, 407.708 193.264 C 407.072 193.476, 407.120 194.355, 407.841 195.702 C 408.967 197.807, 408.976 197.807, 416.008 195.998 C 419.880 195.002, 423.262 194.145, 423.524 194.094 C 423.786 194.042, 423.887 193.662, 423.750 193.250 C 423.613 192.838, 423.163 192.613, 422.750 192.750 C 422.337 192.887, 422 192.550, 422 192 C 422 191.450, 421.086 191, 419.969 191 C 418.851 191, 417.678 190.325, 417.362 189.500 C 416.584 187.475, 415.942 187.591, 412.046 190.466 M 399.569 192.579 C 398.972 194.961, 398.542 195.187, 395.546 194.701 C 391.906 194.111, 391.043 195.358, 391.014 201.250 C 391.001 203.854, 390.602 204.168, 387 204.402 C 385.895 204.474, 385.348 206.211, 384.923 211 C 384.605 214.575, 384.268 216.214, 384.173 214.643 C 384.034 212.349, 383.655 211.925, 382.250 212.492 C 378.134 214.151, 372.635 214.261, 369.608 212.745 C 367.898 211.889, 363.800 210.682, 360.500 210.063 C 355.192 209.069, 354.385 209.133, 353.500 210.624 C 352.950 211.550, 350.363 215.148, 347.750 218.618 C 345.137 222.088, 343 225.404, 343 225.986 C 343 227.661, 351.706 232.741, 360.175 236.007 C 368.942 239.388, 375.267 239.810, 382.131 237.471 C 392.604 233.903, 402.360 219.082, 405.309 202.259 C 406.305 196.580, 406.222 195.774, 404.391 193.322 C 401.636 189.632, 400.358 189.436, 399.569 192.579 M 508.515 216.819 C 508.140 217.194, 502.809 217.605, 496.667 217.734 C 482.271 218.036, 482.748 217.940, 483.413 220.417 C 483.721 221.563, 483.986 222.950, 484.002 223.500 C 484.018 224.050, 484.411 223.900, 484.876 223.166 C 485.557 222.092, 485.840 222.141, 486.329 223.416 C 486.828 224.716, 486.090 225.018, 482.219 225.101 C 479.623 225.157, 475.925 225.086, 474 224.944 C 463.642 224.177, 435.151 227.226, 433.871 229.238 C 433.479 229.855, 433.098 229.795, 432.860 229.079 C 432.586 228.258, 431.942 228.322, 430.599 229.304 C 429.087 230.410, 428.937 231.051, 429.830 232.589 C 430.910 234.450, 430.940 234.447, 430.985 232.500 C 431.023 230.840, 431.195 230.755, 432 232 C 432.533 232.825, 432.976 233.107, 432.985 232.628 C 432.993 232.148, 433.563 232.195, 434.250 232.733 C 435.704 233.870, 475.936 233.776, 477.789 232.630 C 478.473 232.208, 479 232.390, 479 233.049 C 479 233.807, 479.912 233.988, 481.596 233.565 C 483.074 233.194, 484.796 233.416, 485.596 234.079 C 486.701 234.997, 487 234.907, 487 233.654 C 487 232.581, 487.542 232.271, 488.664 232.701 C 489.872 233.165, 490.104 232.977, 489.510 232.015 C 488.950 231.110, 489.076 230.929, 489.908 231.443 C 491.698 232.549, 500.951 232.655, 501.310 231.573 C 501.485 231.048, 502.211 231.012, 502.985 231.491 C 503.736 231.955, 505.960 232.372, 507.926 232.418 C 511.448 232.499, 511.505 232.436, 511.814 228.118 C 512.074 224.482, 511.862 223.839, 510.564 224.337 C 509.704 224.667, 509 224.501, 509 223.969 C 509 223.436, 509.675 223, 510.500 223 C 511.488 223, 512 222.012, 512 220.107 C 512 217.334, 509.941 215.392, 508.515 216.819 M 500.268 222.525 C 498.643 223.663, 498.051 223.714, 497.662 222.749 C 497.275 221.790, 497.140 221.804, 497.079 222.809 C 497.036 223.529, 496.492 223.804, 495.870 223.420 C 495.185 222.996, 494.923 223.268, 495.204 224.111 C 495.526 225.078, 497.386 225.500, 501.333 225.500 C 506.363 225.500, 507 225.272, 507 223.468 C 507 220.934, 503.282 220.413, 500.268 222.525 M 347.212 236.933 C 348.617 241.272, 349.494 242.571, 351.019 242.571 C 352.109 242.571, 353 242.261, 353 241.881 C 353 241.501, 356.624 241.266, 361.053 241.358 C 365.482 241.451, 368.295 241.221, 367.303 240.848 C 355.045 236.234, 351.033 234.580, 348.443 233.074 L 345.386 231.295 347.212 236.933 M 392.961 232.833 C 392.114 233.750, 389.864 235.690, 387.961 237.145 C 384.380 239.883, 384.334 241.664, 387.874 240.540 C 389.224 240.112, 389.692 239.361, 389.279 238.285 C 388.867 237.211, 389.051 236.913, 389.830 237.395 C 390.494 237.805, 391.007 237.552, 391.017 236.809 C 391.027 236.089, 392.483 234.488, 394.253 233.250 C 396.023 232.012, 396.803 231.037, 395.986 231.083 C 395.169 231.129, 393.807 231.917, 392.961 232.833 M 412.500 233 C 410.572 233.829, 410.579 233.862, 412.691 233.930 C 413.896 233.968, 415.160 233.550, 415.500 233 C 416.231 231.817, 415.252 231.817, 412.500 233 M 397.658 235.723 C 397.930 237.371, 397.635 237.797, 396.521 237.370 C 395.042 236.802, 393.191 239.524, 394.301 240.634 C 395.281 241.614, 406 241.883, 406 240.928 C 406 240.417, 405.475 240, 404.833 240 C 404.192 240, 403.904 239.762, 404.195 239.472 C 404.485 239.182, 406.023 239.447, 407.611 240.061 C 412.233 241.847, 414.353 242.047, 415.141 240.771 C 415.689 239.886, 416.343 239.989, 417.689 241.175 C 418.767 242.125, 420.714 242.622, 422.500 242.402 C 424.150 242.200, 426.175 242.310, 427 242.647 C 427.825 242.984, 430.525 243.380, 433 243.527 C 443.243 244.133, 450.500 244.741, 450.500 244.991 C 450.500 245.361, 455.952 245.993, 459.122 245.990 C 460.565 245.989, 462.285 246.639, 462.946 247.434 C 464.201 248.947, 467.398 248.453, 466.435 246.895 C 466.131 246.403, 466.359 246, 466.941 246 C 467.523 246, 468 246.450, 468 247 C 468 247.550, 468.675 248, 469.500 248 C 470.325 248, 471 248.450, 471 249 C 471 249.550, 471.536 249.888, 472.191 249.750 C 472.845 249.613, 473.566 250.353, 473.792 251.396 C 474.094 252.788, 473.785 253.132, 472.633 252.690 C 471.770 252.358, 470.827 252.471, 470.537 252.940 C 470.248 253.408, 468.484 253.447, 466.618 253.027 C 464.751 252.606, 460.469 252.382, 457.101 252.529 C 453.733 252.677, 448.968 252.193, 446.513 251.454 C 443.744 250.620, 441.824 250.475, 441.456 251.072 C 441.129 251.600, 440.396 251.745, 439.826 251.393 C 439.257 251.041, 436.496 250.573, 433.691 250.354 C 430.886 250.135, 428.257 249.416, 427.849 248.756 C 427.319 247.898, 426.922 248.040, 426.455 249.257 C 425.945 250.585, 425.003 250.835, 422.151 250.399 C 420.143 250.092, 417.432 249.155, 416.127 248.317 C 414.822 247.478, 414.061 247.289, 414.436 247.896 C 414.811 248.503, 414.641 249, 414.059 249 C 413.477 249, 413 248.550, 413 248 C 413 247.450, 412.523 247, 411.941 247 C 411.359 247, 411.098 247.349, 411.362 247.776 C 411.625 248.203, 409.172 248.540, 405.910 248.526 C 401.720 248.508, 400.114 248.148, 400.439 247.301 C 400.707 246.601, 400.321 246.323, 399.512 246.634 C 398.700 246.946, 398.384 247.855, 398.750 248.833 C 399.298 250.295, 399.163 250.328, 397.658 249.103 C 396.276 247.979, 395.427 247.940, 393.311 248.904 C 391.220 249.857, 390.493 249.836, 389.765 248.801 C 389.047 247.782, 388.738 247.769, 388.344 248.741 C 387.961 249.682, 387.479 249.622, 386.348 248.491 C 384.435 246.577, 382.098 246.582, 381.362 248.500 C 381.045 249.325, 380.098 250, 379.258 250 C 378.226 250, 378.555 250.649, 380.273 252 C 381.671 253.100, 383.237 254, 383.753 254 C 384.268 254, 385.547 254.952, 386.595 256.115 C 387.643 257.278, 389.562 258.636, 390.861 259.132 C 393.355 260.086, 408.905 261.443, 417.750 261.479 C 420.638 261.490, 423 261.894, 423 262.375 C 423 262.856, 424.318 262.986, 425.930 262.664 C 427.776 262.295, 429.041 262.526, 429.351 263.289 C 429.725 264.211, 429.861 264.201, 429.921 263.250 C 430.017 261.734, 432.937 261.637, 435 263.081 C 436.157 263.891, 435.956 263.977, 434.125 263.458 C 432.798 263.083, 431.995 263.182, 432.305 263.684 C 432.991 264.794, 423.976 264.795, 422.250 263.686 C 421.516 263.214, 421 263.344, 421 264 C 421 264.615, 420.581 264.859, 420.069 264.543 C 419.557 264.226, 418.877 264.389, 418.558 264.905 C 418.066 265.703, 427.050 272.374, 428.876 272.566 C 429.219 272.602, 431.944 273.389, 434.932 274.316 C 437.919 275.242, 442.330 276, 444.735 276 C 447.750 276, 450.248 276.776, 452.785 278.500 C 454.809 279.875, 457.683 281, 459.173 281 C 460.663 281, 462.148 281.430, 462.473 281.956 C 462.798 282.482, 463.725 282.659, 464.532 282.349 C 465.339 282.040, 466 282.307, 466 282.944 C 466 284.564, 472.965 290.773, 475.992 291.851 C 479.079 292.951, 494.814 296.011, 497.349 296.005 C 498.366 296.002, 500.459 297.350, 502 299 C 503.541 300.650, 505.259 302, 505.818 302 C 506.376 302, 506.983 302.391, 507.167 302.868 C 507.350 303.345, 508.512 304.050, 509.750 304.435 C 511.997 305.134, 512 305.117, 512 293.220 C 512 281.874, 511.893 281.250, 509.750 280.148 L 507.500 278.989 509.750 279.562 C 511.934 280.118, 512 279.916, 512 272.625 L 512 265.115 507.750 264.807 C 503.633 264.510, 503.574 264.458, 505.871 263.150 C 507.175 262.408, 507.965 262.248, 507.627 262.794 C 507.276 263.362, 508.081 263.726, 509.506 263.644 L 511.999 263.500 511.999 250.224 L 512 236.947 506.250 237.065 C 503.087 237.130, 498.250 236.793, 495.500 236.316 C 491.831 235.681, 470.500 235.395, 470.500 235.982 C 470.500 236.024, 466.675 236.254, 462 236.494 C 439.507 237.651, 435.588 238.048, 434.825 239.249 C 434.190 240.249, 434.028 240.249, 434.015 239.250 C 434.007 238.563, 433.523 238, 432.941 238 C 432.359 238, 432.144 238.424, 432.464 238.941 C 432.784 239.459, 431.798 239.797, 430.273 239.691 C 428.748 239.586, 427.194 238.825, 426.820 238 C 426.264 236.772, 426.128 236.818, 426.070 238.250 C 425.991 240.220, 424.009 240.695, 423.985 238.750 C 423.974 237.910, 423.729 237.852, 423.235 238.573 C 422.831 239.163, 421.763 239.917, 420.863 240.248 C 419.605 240.711, 419.318 240.348, 419.624 238.675 C 419.843 237.479, 419.755 237.063, 419.428 237.750 C 418.537 239.623, 416.002 239.255, 415.985 237.250 C 415.972 235.849, 415.793 235.779, 415.086 236.896 C 414.565 237.718, 413.493 238.019, 412.474 237.628 C 411.524 237.264, 410.186 237.431, 409.500 238 C 407.849 239.370, 405.012 238.211, 404.955 236.143 C 404.929 235.187, 404.297 235.755, 403.444 237.500 C 402.349 239.742, 402.084 239.932, 402.395 238.250 C 402.912 235.466, 401.430 235.247, 400.710 238 C 400.328 239.460, 399.420 239.960, 397.344 239.850 L 394.500 239.700 397.144 239.294 C 399.002 239.008, 399.929 238.154, 400.260 236.420 C 400.520 235.063, 400.273 233.668, 399.711 233.322 C 399.150 232.975, 398.993 233.179, 399.362 233.776 C 399.731 234.373, 399.609 235.123, 399.092 235.443 C 398.575 235.763, 397.958 235.456, 397.721 234.762 C 397.485 234.068, 397.457 234.501, 397.658 235.723 M 392.954 237.086 C 391.367 240.052, 392.173 240.242, 394.297 237.402 C 395.285 236.081, 395.638 235, 395.082 235 C 394.526 235, 393.568 235.939, 392.954 237.086 M 378 241 C 375.940 241.660, 375.852 241.816, 377.500 241.885 C 378.600 241.931, 380.175 241.533, 381 241 C 382.752 239.868, 381.536 239.868, 378 241 M 448.333 262.716 C 448.333 263.808, 449.303 264.086, 452.167 263.813 C 454.275 263.612, 456 263.812, 456 264.258 C 456 265.324, 459.969 264.731, 462.492 263.289 C 465.639 261.489, 463.466 260.621, 460.062 262.319 C 457.882 263.407, 457 263.504, 457 262.656 C 457 261.934, 455.293 261.423, 452.667 261.359 C 449.484 261.282, 448.333 261.642, 448.333 262.716 M 466.211 262.538 C 465.129 263.764, 465.250 264, 466.961 264 C 468.107 264, 469 263.343, 469 262.500 C 469 260.621, 467.888 260.637, 466.211 262.538 M 473.869 262.342 C 474.481 263.080, 474.799 263.868, 474.575 264.092 C 474.350 264.316, 475.661 264.500, 477.488 264.500 C 479.314 264.500, 480.553 264.086, 480.240 263.580 C 479.928 263.074, 480.421 262.947, 481.336 263.299 C 482.423 263.716, 483 263.428, 483 262.469 C 483 260.811, 480.446 260.469, 479.500 262 C 479.160 262.550, 478.207 263, 477.382 263 C 476.557 263, 476.160 262.550, 476.500 262 C 476.840 261.450, 476.136 261, 474.937 261 C 473.225 261, 472.995 261.289, 473.869 262.342 M 500 262.531 C 500 264.212, 498.425 264.496, 497.490 262.984 C 497.144 262.425, 496.366 262.274, 495.760 262.648 C 494.194 263.616, 498.858 265.180, 501.145 264.454 C 503.384 263.743, 503.551 262.425, 501.500 261.638 C 500.586 261.288, 500 261.637, 500 262.531 M 485.250 262.728 C 482.563 263.671, 484.203 264.534, 487.994 264.172 C 490.191 263.962, 491.775 263.444, 491.513 263.020 C 490.999 262.189, 487.281 262.015, 485.250 262.728 M 378 271.039 C 378 271.503, 378.439 272.153, 378.976 272.485 C 380.709 273.556, 386.731 285.295, 389.402 292.810 C 395.126 308.913, 394.947 320.204, 388.775 332.460 C 384.827 340.299, 374.458 350.435, 365.718 355 C 362.033 356.925, 359.013 359.048, 359.008 359.718 C 359.004 360.388, 362.937 362.100, 367.750 363.523 C 380.832 367.390, 390.380 371.521, 401.500 378.125 C 417.123 387.404, 431.908 398.986, 441.643 409.572 C 446.514 414.870, 451.778 419.867, 453.341 420.675 C 455.917 422.008, 456.370 421.975, 458.194 420.324 C 461.173 417.628, 460.303 409.526, 456.423 403.829 C 451.837 397.097, 451.514 396.326, 454.374 398.945 C 458.414 402.644, 462.302 411.291, 461.812 415.487 C 461.357 419.383, 462.731 420.092, 465.227 417.250 C 469.166 412.764, 468.545 405.948, 463.423 397.442 C 459.599 391.092, 459.279 390.157, 461.582 392.068 C 464.125 394.178, 469 404.669, 469 408.031 C 469 409.834, 469.416 410.861, 470 410.500 C 470.550 410.160, 471 408.251, 471 406.257 C 471 395.645, 455.811 379.407, 437.123 370.040 C 428.200 365.567, 395.280 354.774, 390.730 354.829 C 388.627 354.855, 387.215 354.460, 387.539 353.938 C 387.857 353.422, 388.654 352.996, 389.309 352.990 C 391.926 352.969, 401.024 347.974, 405.052 344.347 C 418.611 332.140, 422.612 313.810, 415.063 298.477 C 409.296 286.763, 395.725 275.530, 382.547 271.564 C 380.046 270.811, 378 270.575, 378 271.039 M 504.474 279.957 C 504.930 280.695, 504.681 281.588, 503.878 282.096 C 502.788 282.787, 502.866 282.973, 504.250 282.985 C 506.211 283.002, 506.626 280.505, 504.845 279.405 C 504.094 278.940, 503.964 279.133, 504.474 279.957" stroke="none" fill="#e6ecf3" fill-rule="evenodd"/><path d="M 19.683 1.460 C 18.561 2.582, 16.112 2.842, 9.111 2.582 C 1.872 2.312, 0 2.526, 0 3.621 C 0 4.380, 0.563 4.888, 1.250 4.750 C 2.421 4.516, 2.573 5.419, 2.919 14.668 C 3.017 17.290, 8.574 21, 12.403 21 C 13.870 21, 16.121 20.312, 17.405 19.471 C 18.853 18.522, 22.729 17.817, 27.619 17.614 C 35.644 17.281, 38.921 16.491, 40.235 14.573 C 40.705 13.886, 40.975 14.019, 40.985 14.941 C 40.997 16.074, 41.267 16.024, 42.250 14.707 C 43.547 12.968, 48 13.331, 48 15.176 C 48 15.694, 47.592 15.866, 47.094 15.558 C 46.595 15.250, 46.702 16.089, 47.332 17.423 C 48.132 19.119, 48.733 19.495, 49.332 18.674 C 49.843 17.974, 49.903 18.307, 49.481 19.500 C 49.092 20.600, 48.524 22.374, 48.220 23.441 C 47.588 25.659, 43.084 29.921, 41.321 29.968 C 40.673 29.986, 39.369 30.774, 38.424 31.719 C 37.478 32.665, 35.572 33.590, 34.189 33.775 C 31.399 34.149, 26.732 37.399, 27.657 38.324 C 27.982 38.648, 27.895 39.721, 27.465 40.707 C 27.035 41.693, 26.754 42.837, 26.841 43.250 C 26.929 43.662, 26.339 44, 25.531 44 C 24.570 44, 24.271 43.396, 24.666 42.250 C 25.156 40.829, 24.968 40.876, 23.666 42.500 C 22.785 43.600, 22.049 44.174, 22.032 43.775 C 22.014 43.376, 20.875 43.477, 19.500 44 C 17.530 44.749, 17 44.636, 17 43.467 C 17 42.241, 16.658 42.197, 15.031 43.213 C 13.948 43.889, 12.875 45.131, 12.647 45.971 C 12.347 47.075, 12.200 46.980, 12.116 45.628 C 12.020 44.079, 11.740 43.971, 10.500 45 C 9.675 45.685, 8.993 45.852, 8.985 45.372 C 8.961 44.026, 7.033 47.333, 7.015 48.750 C 7.007 49.438, 7.498 50, 8.107 50 C 8.746 50, 8.935 49.261, 8.553 48.250 C 7.961 46.684, 8.081 46.696, 9.696 48.370 C 11.007 49.729, 11.158 50.366, 10.250 50.703 C 8.817 51.235, 8.550 55.604, 9.900 56.438 C 10.395 56.744, 10.834 58.458, 10.875 60.247 C 10.962 64.006, 11.416 66.754, 12.054 67.377 C 12.299 67.616, 13.850 68.027, 15.500 68.290 C 19.159 68.872, 27.190 71.013, 28.332 71.711 C 29.430 72.382, 24.241 77.792, 20.750 79.615 C 19.238 80.405, 18 80.760, 18 80.403 C 18 80.047, 17.413 80.242, 16.696 80.837 C 15.593 81.753, 9.772 82.780, 2.749 83.299 C 1.034 83.426, -0.708 86.625, 0.358 87.691 C 0.813 88.147, 3.706 88.572, 10.750 89.219 C 11.438 89.282, 12 89.654, 12 90.046 C 12 91.608, 4.842 102.638, 2.475 104.723 L -0.050 106.947 0.225 123.154 C 0.492 138.894, 0.553 139.308, 2.341 137.518 C 3.880 135.977, 4.328 135.907, 5.075 137.088 C 5.707 138.085, 5.974 138.133, 5.985 137.250 C 5.993 136.563, 6.525 136, 7.167 136 C 7.808 136, 8.040 136.293, 7.682 136.651 C 6.706 137.627, 10.186 139.932, 12.691 139.968 C 13.896 139.986, 15.174 139.527, 15.532 138.948 C 15.890 138.370, 17.589 138.032, 19.309 138.198 C 21.877 138.446, 22.674 138.009, 23.772 135.750 C 24.508 134.238, 25.704 133, 26.432 133 C 27.160 133, 28.351 132.282, 29.079 131.404 C 30.074 130.206, 31.388 129.966, 34.356 130.441 C 36.530 130.789, 38.801 131.377, 39.402 131.748 C 40.003 132.120, 44.546 132.475, 49.497 132.538 C 54.449 132.601, 59.525 132.990, 60.777 133.402 C 63.538 134.311, 72.372 130.411, 71.339 128.739 C 70.910 128.045, 71.295 127.899, 72.420 128.331 C 75.353 129.457, 73.691 126.658, 70.440 124.999 C 68.823 124.174, 67.500 122.824, 67.500 121.999 C 67.500 120.079, 64.682 120, 63.927 121.899 C 63.592 122.743, 62.814 121.406, 62.047 118.670 C 61.115 115.340, 60.227 114, 58.953 114 C 57.971 114, 56.940 113.437, 56.662 112.750 C 56.259 111.750, 56.142 111.750, 56.079 112.750 C 56.036 113.438, 55.132 114, 54.071 114 C 53.011 114, 51.436 114.707, 50.571 115.571 C 49.707 116.436, 49 116.670, 49 116.093 C 49 115.401, 48.089 115.458, 46.329 116.260 C 44.216 117.222, 43.572 117.217, 43.244 116.232 C 43.016 115.548, 42.397 115.255, 41.869 115.581 C 41.340 115.908, 38.661 115.866, 35.914 115.488 C 32.016 114.952, 31.153 114.521, 31.981 113.523 C 32.773 112.568, 32.530 112.110, 31.021 111.716 C 29.909 111.425, 29 111.616, 29 112.140 C 29 113.262, 24.078 109.869, 24.031 108.715 C 24.014 108.283, 24.870 108.395, 25.934 108.965 C 28.916 110.561, 29.460 110.193, 27.029 108.224 C 24.869 106.475, 24.975 106.422, 34.162 104.686 C 39.292 103.716, 47.541 101.549, 52.494 99.869 C 61.986 96.652, 85.078 85.046, 98.421 76.788 C 102.778 74.092, 106.815 71.799, 107.392 71.693 C 108.058 71.571, 108.330 73.736, 108.136 77.616 C 107.838 83.606, 107.900 83.774, 111.166 85.743 C 114.718 87.885, 121.047 88.542, 122.077 86.875 C 122.419 86.323, 125.691 85.188, 129.349 84.354 C 133.007 83.519, 136 82.397, 136 81.859 C 136 81.322, 136.500 81.191, 137.112 81.569 C 137.723 81.947, 138.623 81.636, 139.112 80.878 C 139.857 79.722, 140.159 79.742, 140.985 81 C 141.796 82.236, 141.972 82.251, 141.985 81.083 C 142.007 79.030, 143.326 80.666, 143.718 83.232 C 143.901 84.432, 144.602 85.763, 145.275 86.191 C 146.234 86.800, 146.229 86.973, 145.250 86.985 C 144.563 86.993, 144 88.173, 144 89.606 C 144 91.821, 140.198 96.256, 138.024 96.578 C 134.065 97.163, 130 98.385, 130 98.990 C 130 99.412, 128.650 100.317, 127 101 C 125.350 101.683, 124 102.883, 124 103.665 C 124 104.448, 123.438 104.977, 122.750 104.841 C 120.879 104.472, 114 107.017, 114 108.078 C 114 108.585, 113.319 109, 112.486 109 C 110.805 109, 106.852 111.016, 105.862 112.378 C 105.511 112.861, 104.611 112.887, 103.862 112.436 C 102.760 111.773, 102.768 111.946, 103.901 113.343 C 105.128 114.854, 105.034 115.319, 103.151 117.074 C 101.757 118.373, 100.995 118.624, 100.985 117.789 C 100.974 116.920, 100.730 116.854, 100.235 117.586 C 99.208 119.105, 93 121.131, 93 119.948 C 93 119.427, 92.502 119, 91.893 119 C 91.284 119, 91.045 119.675, 91.362 120.500 C 91.678 121.325, 91.501 122, 90.969 122 C 90.436 122, 89.986 120.763, 89.968 119.250 C 89.938 116.676, 89.846 116.619, 88.535 118.350 C 87.764 119.368, 86.623 119.885, 86 119.500 C 85.377 119.115, 84.236 119.632, 83.465 120.650 C 82.141 122.398, 82.057 122.362, 81.953 120 C 81.835 117.344, 81.609 117.718, 80.444 122.500 L 79.713 125.500 79.063 123.005 C 78.705 121.633, 77.617 120.357, 76.644 120.170 C 75.222 119.896, 75.061 120.188, 75.822 121.665 C 76.970 123.895, 78.620 127.877, 79.378 130.250 C 80.074 132.428, 79.099 135.179, 77.895 134.435 C 77.403 134.131, 77 134.350, 77 134.921 C 77 135.493, 78.360 135.803, 80.022 135.609 C 81.779 135.404, 83.349 135.797, 83.772 136.548 C 84.173 137.258, 85.164 137.987, 85.976 138.169 C 86.788 138.351, 88.058 139.063, 88.798 139.750 C 89.537 140.438, 90.786 141, 91.571 141 C 92.357 141, 93 141.375, 93 141.833 C 93 142.737, 93.386 142.807, 99.749 143.064 C 103.612 143.220, 114.442 139.149, 116 136.955 C 116.275 136.568, 117.957 135.935, 119.738 135.549 C 121.519 135.163, 123.842 133.745, 124.901 132.399 C 126.698 130.114, 127.116 130.023, 131.163 131.036 C 133.548 131.633, 136.063 132.169, 136.750 132.228 C 137.438 132.286, 138 132.708, 138 133.167 C 138 133.625, 138.338 133.929, 138.750 133.841 C 139.162 133.754, 140.304 134.034, 141.287 134.463 C 143.902 135.604, 147 132.389, 147 128.534 C 147 125.134, 149.663 121.559, 152.981 120.506 C 154.107 120.149, 154.771 119.438, 154.456 118.928 C 154.140 118.418, 154.246 117.964, 154.691 117.920 C 160.790 117.321, 166 117.297, 166 117.868 C 166 118.262, 167.983 119.116, 170.407 119.764 C 174.480 120.853, 174.865 121.243, 175.482 124.893 C 176.229 129.317, 174.013 133.976, 171.135 134.032 C 168.912 134.075, 166 136.403, 166 138.138 C 166 139.211, 167.272 139.496, 171.250 139.312 C 178.632 138.971, 180.566 138.434, 182.929 136.071 C 184.068 134.932, 185.351 134, 185.781 134 C 186.210 134, 187.045 132.718, 187.637 131.151 C 188.493 128.883, 189.515 128.173, 192.644 127.673 C 194.806 127.327, 197.554 126.132, 198.751 125.017 C 200.555 123.336, 201.960 123.054, 206.987 123.361 C 210.321 123.565, 213.229 123.438, 213.451 123.079 C 213.949 122.274, 217.913 122.495, 220.192 123.456 C 223.857 125.001, 225.500 123.691, 225.500 119.220 C 225.500 116.888, 225.050 114.904, 224.500 114.812 C 222.081 114.403, 220.890 112.075, 222.020 109.963 C 224.818 104.735, 229.434 112.290, 230.671 124.124 C 231.296 130.108, 230.864 130.768, 226.750 130.118 C 226.338 130.053, 226 130.498, 226 131.107 C 226 131.716, 225.389 131.979, 224.641 131.693 C 222.891 131.021, 221.250 136.430, 221.970 140.500 C 222.472 143.343, 225 145.299, 225 142.845 C 225 142.204, 225.922 142.525, 227.074 143.567 C 228.215 144.599, 229.061 145.007, 228.956 144.472 C 228.511 142.225, 229.067 139.923, 229.926 140.454 C 230.466 140.788, 230.504 142.242, 230.017 143.940 C 229.031 147.379, 227.074 150.967, 227.030 149.417 C 227.014 148.821, 226.325 148.333, 225.500 148.333 C 224.675 148.333, 223.968 148.821, 223.930 149.417 C 223.891 150.012, 223.473 149.600, 223 148.500 C 222.180 146.592, 222.137 146.603, 222.070 148.750 C 222.022 150.310, 221.387 151, 220 151 C 218.900 151, 218 150.550, 218 150 C 218 149.450, 217.523 149, 216.941 149 C 216.359 149, 216.190 149.498, 216.566 150.107 C 217.042 150.877, 216.298 151.005, 214.125 150.527 C 212.131 150.090, 211 150.232, 211 150.921 C 211 151.514, 211.525 152, 212.167 152 C 212.808 152, 213.063 152.270, 212.733 152.600 C 212.403 152.930, 211.541 152.823, 210.817 152.363 C 210.092 151.902, 207.925 151.469, 206 151.399 C 204.075 151.330, 203.063 151.474, 203.750 151.720 C 207.512 153.065, 202.677 156.435, 198 155.727 C 195.531 155.353, 195.696 157.448, 198.191 158.150 C 200.158 158.704, 200.203 158.805, 198.500 158.830 C 196.517 158.859, 191.697 157.205, 193.372 157.070 C 193.852 157.032, 193.721 156.369, 193.081 155.597 C 192.187 154.520, 192.216 154.074, 193.208 153.676 C 194.144 153.301, 194.164 153.136, 193.281 153.079 C 192.610 153.035, 192.287 152.215, 192.562 151.250 C 192.837 150.287, 192.529 150.512, 191.878 151.750 C 191.227 152.988, 190.121 154, 189.421 154 C 188.720 154, 187.941 154.787, 187.689 155.750 C 187.311 157.200, 187.212 157.150, 187.116 155.464 C 186.944 152.451, 183 152.691, 183 155.714 C 183 157.333, 182.417 158, 181 158 C 179.900 158, 179 157.550, 179 157 C 179 156.450, 179.450 156, 180 156 C 180.550 156, 181 155.573, 181 155.052 C 181 154.476, 179.821 154.515, 178 155.150 C 176.350 155.725, 175 156.827, 175 157.598 C 175 158.489, 173.907 159, 172 159 C 169.815 159, 168.996 159.476, 168.985 160.750 C 168.975 161.805, 168.677 162.074, 168.235 161.427 C 167.349 160.133, 163.666 158.650, 164.437 159.898 C 164.734 160.379, 164.083 161.007, 162.989 161.293 C 161.895 161.579, 161 161.405, 161 160.906 C 161 160.408, 160.523 160, 159.941 160 C 159.359 160, 159.170 160.465, 159.521 161.034 C 160.212 162.152, 155.911 161.681, 153.862 160.415 C 153.218 160.017, 152.956 160.119, 153.280 160.643 C 153.603 161.167, 153.455 162.249, 152.949 163.048 C 152.187 164.252, 152.028 164.202, 152.015 162.750 C 152.007 161.787, 151.523 161, 150.941 161 C 150.359 161, 150.152 160.563, 150.482 160.029 C 150.812 159.495, 149.826 158.758, 148.291 158.391 C 146.756 158.024, 144.851 157.224, 144.058 156.612 C 142.959 155.765, 142.795 155.797, 143.367 156.750 C 143.886 157.614, 143.361 158, 141.666 158 C 140.317 158, 138.944 158.704, 138.614 159.563 C 138.284 160.423, 137.561 160.847, 137.007 160.504 C 136.453 160.162, 136 160.269, 136 160.742 C 136 161.215, 134.006 162.570, 131.568 163.755 C 128.372 165.307, 126.999 165.572, 126.644 164.704 C 126.289 163.834, 125.853 163.917, 125.076 165 C 124.120 166.333, 123.889 166.333, 123 165 C 122.168 163.752, 121.853 163.729, 121.121 164.863 C 120.500 165.826, 120.128 165.884, 119.853 165.059 C 119.639 164.417, 118.797 163.759, 117.982 163.597 C 117.167 163.435, 115.825 163.073, 115 162.792 C 105.184 159.456, 99.424 158.505, 98.462 160.061 C 98.031 160.760, 97.362 160.716, 96.411 159.926 C 95.313 159.015, 94.997 159.060, 94.985 160.128 C 94.973 161.145, 94.772 161.189, 94.204 160.296 C 93.783 159.633, 92.552 159.062, 91.469 159.027 C 90.386 158.991, 88.496 158.942, 87.270 158.918 C 86.043 158.893, 84.789 158.468, 84.484 157.973 C 84.178 157.479, 81.196 157.317, 77.857 157.614 C 73.903 157.966, 72.004 157.803, 72.410 157.146 C 72.752 156.592, 72.506 155.813, 71.862 155.415 C 71.131 154.963, 70.959 155.124, 71.405 155.845 C 72.197 157.127, 71.033 157.334, 68.498 156.361 C 67.254 155.883, 67.148 155.527, 68.078 154.952 C 69.901 153.825, 67.037 151.277, 61.916 149.470 C 57.017 147.742, 46.746 147.530, 43.818 149.097 C 42.024 150.057, 41.849 150.807, 42.418 155.096 C 43.039 159.774, 42.966 159.982, 40.810 159.653 C 39.061 159.386, 38.516 158.600, 38.393 156.168 C 38.291 154.124, 38.631 153.225, 39.368 153.594 C 39.990 153.906, 39.230 152.994, 37.678 151.566 C 36.125 150.139, 34.438 149.229, 33.928 149.545 C 33.417 149.860, 33 149.653, 33 149.084 C 33 148.394, 32.168 148.366, 30.500 149 C 28.866 149.621, 28 149.604, 28 148.950 C 28 147.267, 22.825 145.821, 16.250 145.668 C 12.813 145.588, 10 145.197, 10 144.800 C 10 144.403, 7.750 144.173, 5 144.289 L 0.001 144.500 0 328.252 L 0 512.004 256.250 511.752 L 512.500 511.500 512.622 308 C 512.690 196.075, 512.525 105.400, 512.257 106.500 C 511.988 107.600, 511.258 108.831, 510.634 109.235 C 509.821 109.761, 509.854 109.974, 510.750 109.985 C 512.976 110.012, 512.073 111.765, 509.500 112.411 C 508.125 112.756, 507 113.480, 507 114.019 C 507 114.559, 506.052 115, 504.893 115 C 503.392 115, 502.959 115.450, 503.387 116.565 C 503.864 117.810, 503.527 117.983, 501.744 117.408 C 500.510 117.011, 498.957 116.681, 498.294 116.676 C 497.631 116.671, 497.351 116.241, 497.672 115.722 C 497.993 115.202, 497.636 114.384, 496.878 113.904 C 495.880 113.271, 495.845 113.026, 496.750 113.015 C 497.438 113.007, 498 112.523, 498 111.941 C 498 111.359, 497.550 111.160, 497 111.500 C 496.450 111.840, 496 111.672, 496 111.126 C 496 110.581, 496.828 109.872, 497.840 109.551 C 498.852 109.230, 500.278 107.850, 501.008 106.485 C 501.739 105.120, 502.562 104.229, 502.838 104.505 C 503.114 104.781, 504.389 104.320, 505.670 103.480 C 507.429 102.328, 508.007 102.266, 508.030 103.227 C 508.048 103.956, 508.502 103.743, 509.092 102.729 C 509.659 101.755, 510.545 101.219, 511.061 101.538 C 511.613 101.879, 512.012 99.101, 512.029 94.809 C 512.044 90.789, 512.072 67.925, 512.090 44 L 512.122 0.500 325.530 0.247 C 162.839 0.027, 138.651 0.183, 136.696 1.463 C 134.451 2.935, 130 2.549, 130 0.883 C 130 0.383, 106.400 0, 75.571 0 C 29.183 0, 20.927 0.216, 19.683 1.460 M 147.963 14.545 C 147.276 15.372, 146.497 15.830, 146.230 15.564 C 145.964 15.297, 144.173 15.736, 142.251 16.540 C 140.329 17.343, 137.487 18, 135.937 18 C 134.387 18, 132.840 18.450, 132.500 19 C 132.160 19.550, 130.892 20, 129.682 20 C 126.832 20, 124.427 23.605, 126.007 25.509 C 126.624 26.252, 128.088 26.676, 129.260 26.450 C 130.432 26.224, 133.374 27.201, 135.797 28.621 C 139.828 30.984, 140.555 31.103, 144.351 30.030 C 149.602 28.546, 152.186 26.376, 153.684 22.193 C 154.648 19.503, 154.614 18.789, 153.498 18.361 C 152.743 18.071, 152.358 17.231, 152.641 16.494 C 153.459 14.363, 149.487 12.708, 147.963 14.545 M 119.270 42.555 C 119.693 43.005, 118.343 44.218, 116.270 45.251 C 108.578 49.085, 107.483 49.867, 109.036 50.417 C 109.841 50.702, 112.525 51.118, 115 51.340 C 117.475 51.562, 111.400 51.530, 101.500 51.268 C 82.352 50.762, 72.805 51.874, 59.875 56.119 C 52.665 58.486, 42.321 63.853, 36.048 68.482 C 31.384 71.924, 17.578 85.528, 14.212 90 C 10.622 94.769, 6.560 102.894, 7.366 103.695 C 8.650 104.971, 27.803 104.554, 35.500 103.082 C 50.773 100.161, 73.440 90.763, 90 80.486 C 91.925 79.292, 93.950 78.131, 94.500 77.907 C 95.050 77.683, 98.792 75.250, 102.815 72.500 C 114.714 64.367, 113.777 64.631, 132.417 64.175 C 151.643 63.705, 162.060 64.812, 178.840 69.108 C 198.716 74.197, 211.016 81.524, 219.303 93.212 C 228.462 106.131, 232.966 119.237, 232.974 133 C 232.982 146.368, 228.797 156.005, 218.445 166.458 C 209.616 175.374, 202.880 179.458, 179.677 189.964 C 139.432 208.187, 126.589 215.044, 112.731 225.707 C 102.509 233.572, 95.676 241.339, 90.267 251.239 C 82.939 264.651, 81.549 269.541, 81.522 282 C 81.503 291.256, 81.869 293.531, 84.614 301.200 C 88.790 312.871, 99.020 328.084, 110.456 339.633 C 124.479 353.795, 142.502 364.548, 163.500 371.280 C 182.453 377.357, 189.120 378.331, 212 378.363 C 234.104 378.395, 242.961 377.139, 261.154 371.391 C 269.536 368.744, 287 361.064, 287 360.026 C 287 359.702, 284.357 356.822, 281.127 353.626 L 275.254 347.814 271.377 350.223 C 264.219 354.671, 246.566 361.752, 235.486 364.619 C 225.360 367.240, 223.052 367.464, 206 367.481 C 191.514 367.496, 185.873 367.107, 180 365.688 C 133.056 354.344, 99.749 327.660, 91.042 294.421 C 85.012 271.396, 91.928 254.444, 116.018 233.203 C 129.097 221.671, 140.553 214.868, 160.500 206.787 C 188.017 195.639, 208.141 185.201, 217.492 177.226 C 234.456 162.758, 239.543 151.879, 239.339 130.500 C 239.212 117.148, 237.445 109.744, 231.390 97.192 C 223.622 81.092, 212.064 71.490, 190.115 62.900 C 171.388 55.571, 153.376 52.059, 133.619 51.884 C 126.404 51.820, 121.329 51.554, 122.343 51.293 C 123.674 50.950, 124.025 50.218, 123.606 48.659 C 123.288 47.471, 123.021 46.046, 123.014 45.491 C 123.006 44.935, 121.987 43.864, 120.750 43.109 C 119.513 42.355, 118.846 42.105, 119.270 42.555 M 4.141 46 C 4.141 46.825, 4.527 48.400, 5 49.500 C 5.542 50.761, 5.859 50.945, 5.859 50 C 5.859 49.175, 5.473 47.600, 5 46.500 C 4.458 45.239, 4.141 45.055, 4.141 46 M 38 46.531 C 38 48.149, 39.563 48.517, 40.435 47.105 C 40.740 46.612, 40.316 45.952, 39.494 45.636 C 38.587 45.288, 38 45.639, 38 46.531 M 2.639 53.498 C 1.603 56.199, 1.887 57, 3.883 57 C 5.867 57, 7.463 53.404, 5.906 52.442 C 5.408 52.134, 4.993 52.471, 4.985 53.191 C 4.972 54.251, 4.808 54.246, 4.124 53.166 C 3.449 52.102, 3.149 52.169, 2.639 53.498 M 45.603 53.477 C 43.460 54.240, 40.985 55.617, 40.103 56.537 C 38.613 58.090, 38.782 58.164, 42.500 57.592 C 44.700 57.253, 47.314 56.956, 48.308 56.930 C 49.941 56.889, 54 53.730, 54 52.500 C 54 51.562, 49.508 52.085, 45.603 53.477 M 276.071 66.744 C 272.483 74.619, 270.540 103.865, 272.999 112.996 C 273.685 115.542, 273.729 118.889, 273.127 122.692 C 271.994 129.855, 272.471 144.322, 274.032 150.117 C 274.671 152.492, 276.059 156.275, 277.117 158.525 L 279.039 162.614 268.074 185.124 C 251.083 220.003, 247.625 232.666, 247.626 260 C 247.627 277.584, 248.202 280.720, 255.330 302 C 256.712 306.125, 258.822 312.650, 260.020 316.500 C 265.170 333.051, 277.449 350.104, 293 362.304 C 302.891 370.064, 307.010 373.876, 306.108 374.433 C 305.659 374.711, 304.247 373.827, 302.971 372.469 C 301.695 371.111, 299.877 370, 298.931 370 C 296.303 370, 290.997 375.468, 291.022 378.151 C 291.053 381.499, 294.342 388.314, 299.344 395.396 C 314.608 417.010, 323.992 434.690, 335.534 463.583 C 340.789 476.737, 345.902 488.321, 346.897 489.325 C 348.524 490.966, 348.861 490.996, 350.241 489.616 C 352.159 487.698, 351.640 476.652, 349.329 470.189 C 347.376 464.725, 348.332 463.500, 350.538 468.642 C 351.939 471.909, 352.564 476.503, 352.934 486.250 C 353.030 488.779, 355.203 488.344, 357.379 485.359 C 359.306 482.715, 359.313 481.750, 357.505 467 C 357.047 463.262, 357.133 462.911, 358.011 464.929 C 358.592 466.265, 359.342 469.978, 359.677 473.179 C 360.011 476.381, 360.509 479, 360.782 479 C 362.506 479, 363.941 474.694, 363.968 469.438 C 364.045 454.729, 350.310 426.573, 328.145 396 C 323.958 390.225, 320.187 385.350, 319.766 385.167 C 317.851 384.333, 319.578 382.970, 327.250 379.259 C 336.729 374.675, 342.260 369.629, 345.622 362.500 C 348.735 355.899, 348.911 342.399, 346.029 331.115 C 342.241 316.276, 335.173 300.790, 328.291 292.250 C 326.407 289.913, 325.332 288, 325.901 288 C 328.652 288, 337.311 302.253, 342.303 315 C 348.240 330.158, 349.478 335.886, 349.489 348.250 C 349.495 354.712, 349.542 360, 349.593 360 C 349.645 360, 352.120 359.142, 355.093 358.093 C 376.279 350.621, 390.640 334.285, 391.791 316.349 C 393.204 294.338, 377.977 266.985, 356.705 253.320 C 349.331 248.584, 348.418 247.149, 343.955 233.292 L 341.660 226.168 337.256 229.530 C 327.273 237.153, 314.430 240.998, 304.608 239.304 C 298.570 238.263, 290.306 235.360, 291.106 234.561 C 291.333 234.334, 294.215 235.062, 297.509 236.179 C 307.026 239.405, 317.629 238.476, 327.615 233.541 C 337.123 228.842, 347.020 219.295, 351.858 210.158 C 355.236 203.778, 355.180 202.493, 351.500 201.838 C 349.933 201.560, 349.433 200.565, 349.193 197.241 C 349.023 194.909, 348.541 193, 348.121 193 C 347.700 193, 345.229 193.725, 342.629 194.611 C 338.294 196.088, 337.755 196.089, 336.132 194.620 C 334.490 193.133, 334.204 193.233, 332.153 196.006 C 330.938 197.650, 327.594 200.233, 324.722 201.747 C 320.014 204.228, 318.496 204.499, 309.300 204.499 C 301.993 204.500, 298.731 204.114, 297.800 203.138 C 296.719 202.005, 296.837 201.864, 298.500 202.304 C 303.566 203.642, 309.981 203.932, 315.232 203.061 C 321.298 202.055, 328 199.352, 328 197.912 C 328 196.578, 323.120 194.385, 316.265 192.638 C 308.679 190.705, 301.013 186.952, 295 182.229 C 289.767 178.118, 283.028 170.948, 283.038 169.500 C 283.041 168.950, 284.947 170.544, 287.272 173.042 C 295.999 182.416, 305.305 188.332, 315.500 190.984 C 318.250 191.700, 322.676 193.193, 325.335 194.302 L 330.170 196.319 332.356 193.578 C 334.541 190.838, 334.543 190.838, 336.376 192.862 L 338.209 194.888 343.235 192.908 C 345.999 191.818, 348.539 191.199, 348.880 191.533 C 349.221 191.866, 349.970 194.020, 350.544 196.320 C 351.347 199.537, 352.119 200.577, 353.895 200.833 C 355.841 201.113, 356.134 201.637, 355.762 204.169 C 355.165 208.236, 357.486 209.004, 370.315 208.985 C 381.225 208.968, 382.562 208.605, 383.143 205.500 C 383.386 204.199, 384.451 203.392, 386.192 203.190 C 388.301 202.946, 389.003 202.204, 389.508 199.690 C 390.888 192.822, 390.961 192.732, 394.604 193.323 C 396.943 193.703, 398 193.487, 398 192.628 C 398 191.943, 398.639 190.509, 399.419 189.441 C 400.810 187.539, 400.891 187.549, 403.417 189.922 L 405.994 192.343 410.747 189.023 C 424.272 179.575, 433.132 162.818, 433.230 146.500 C 433.295 135.593, 429.951 122.612, 424.405 112.250 C 419.646 103.358, 419.324 101.510, 423.680 108.092 C 426.322 112.085, 426.409 112.128, 427.273 109.842 C 430.439 101.464, 432.225 79.047, 430.471 69.698 C 429.661 65.381, 428.563 65.027, 416 65.028 C 403.521 65.030, 386.376 69.052, 383.374 72.682 C 382.493 73.747, 381.620 73.805, 379.374 72.945 C 368.365 68.731, 344.808 66.717, 334 69.064 C 324.407 71.148, 322.187 71.223, 317.360 69.626 C 308.081 66.556, 293.597 64, 285.481 64 C 277.554 64, 277.285 64.078, 276.071 66.744 M 121.579 65.894 C 119.743 66.613, 119.759 66.718, 121.943 68.248 C 124.219 69.842, 126.881 69.574, 128.184 67.621 C 129.785 65.221, 125.893 64.203, 121.579 65.894 M 389 76.449 C 389 76.724, 390.350 77.647, 392 78.500 C 393.650 79.353, 395 79.826, 395 79.551 C 395 79.276, 393.650 78.353, 392 77.500 C 390.350 76.647, 389 76.174, 389 76.449 M 0.409 122.500 C 0.408 131.850, 0.558 135.810, 0.743 131.299 C 0.928 126.789, 0.929 119.139, 0.745 114.299 C 0.562 109.460, 0.410 113.150, 0.409 122.500 M 249.645 106.688 C 249.199 107.135, 248.533 107.507, 248.167 107.515 C 247.800 107.523, 246.244 108.800, 244.708 110.353 C 242.311 112.776, 241.688 112.986, 240.307 111.840 C 238.848 110.629, 238.782 110.969, 239.599 115.503 C 240.095 118.251, 240.499 127.224, 240.497 135.443 C 240.496 143.661, 240.646 149.600, 240.831 148.640 C 241.098 147.255, 241.460 147.137, 242.584 148.069 C 243.599 148.912, 244 148.927, 244 148.122 C 244 147.505, 244.477 147, 245.059 147 C 245.641 147, 245.840 147.450, 245.500 148 C 245.160 148.550, 245.610 149, 246.500 149 C 247.428 149, 247.826 148.528, 247.434 147.893 C 246.974 147.148, 247.444 147.006, 248.868 147.458 C 250.533 147.987, 250.857 147.791, 250.379 146.546 C 249.888 145.266, 250.417 145.013, 253.136 145.231 C 255.864 145.449, 256.444 145.169, 256.206 143.750 C 256.045 142.787, 256.409 142, 257.015 142 C 257.622 142, 257.838 142.453, 257.496 143.007 C 257.153 143.561, 257.574 144.283, 258.431 144.612 C 259.288 144.941, 259.758 145.583, 259.476 146.038 C 259.195 146.494, 260.307 146.829, 261.948 146.782 C 263.589 146.736, 264.714 146.347, 264.449 145.918 C 264.184 145.489, 264.425 144.856, 264.984 144.510 C 265.543 144.165, 266.007 144.696, 266.015 145.691 C 266.028 147.213, 266.180 147.263, 266.974 146.008 C 268.322 143.876, 266.479 142.357, 264.518 143.985 C 262.519 145.644, 262.140 145.128, 263.063 142 C 263.469 140.625, 263.845 140.048, 263.900 140.719 C 263.955 141.389, 264.628 141.696, 265.396 141.401 C 266.164 141.107, 267.467 141.829, 268.292 143.006 C 269.121 144.191, 270.064 144.706, 270.402 144.159 C 270.738 143.615, 270.616 143.020, 270.132 142.835 C 269.422 142.565, 270.230 133.036, 272.142 119.113 C 272.446 116.898, 270.966 108.834, 269.918 107 C 269.244 105.820, 269.054 105.795, 269.030 106.880 C 269.007 107.949, 267.930 108.113, 264.250 107.609 C 253.236 106.098, 250.413 105.920, 249.645 106.688 M 71.557 119.908 C 71.249 120.407, 71.418 121.869, 71.935 123.158 C 72.997 125.810, 73.189 125.629, 73.425 121.750 C 73.590 119.045, 72.658 118.126, 71.557 119.908 M 316.419 132.031 C 308.804 134.350, 303.847 142.775, 302.551 155.600 L 301.935 161.700 310.227 162.337 C 319.061 163.016, 333.685 166.313, 338.279 168.661 C 339.808 169.442, 341.496 169.812, 342.029 169.482 C 343.816 168.378, 343.152 153.421, 341.074 147.952 C 336.365 135.560, 326.260 129.035, 316.419 132.031 M 315.357 133.952 C 313.127 134.950, 310.387 137.057, 309.269 138.633 C 305.703 143.662, 303.368 152.851, 303.903 159.750 C 303.963 160.526, 305.518 161, 308 161 L 312 161 312 155.538 C 312 149.236, 315.026 140.311, 318.603 136.059 C 321.701 132.378, 320.546 131.628, 315.357 133.952 M 344.785 137.135 C 345.679 139.410, 346.570 140.790, 346.766 140.203 C 347.109 139.173, 344.357 133, 343.555 133 C 343.338 133, 343.892 134.861, 344.785 137.135 M 405 135.285 C 398.790 138.405, 392 154.040, 392 165.222 C 392 172.078, 390.644 171.749, 403.960 168.123 C 408.063 167.006, 413.805 165.793, 416.720 165.429 C 423.061 164.637, 423.558 163.566, 422.722 152.506 C 422.099 144.270, 420.451 140.399, 415.959 136.619 C 412.572 133.769, 408.907 133.323, 405 135.285 M 394.077 139.077 C 392.824 141.307, 392.037 143.370, 392.329 143.663 C 392.621 143.955, 393.823 142.307, 395 140 C 397.781 134.549, 397.039 133.807, 394.077 139.077 M 406.250 135.662 C 404.408 136.406, 404.730 137.696, 406.898 138.263 C 410.949 139.323, 412.500 143.735, 412.500 154.203 L 412.500 163.998 415.559 163.999 C 421.323 164.001, 422.403 162.243, 421.645 154.086 C 420.854 145.581, 419.103 140.927, 415.405 137.499 C 412.888 135.167, 409.275 134.442, 406.250 135.662 M 329.611 139.532 C 326.409 142.734, 326.355 152.432, 329.532 153.651 C 335.946 156.112, 340.620 146.600, 335.927 140.635 C 333.567 137.634, 331.815 137.328, 329.611 139.532 M 400.539 141.360 C 399.088 143.262, 397.811 146.096, 397.701 147.659 C 397.527 150.119, 397.896 150.545, 400.451 150.836 C 402.414 151.059, 403.836 150.577, 404.701 149.395 C 406.430 147.030, 406.359 140.543, 404.588 139.073 C 403.454 138.132, 402.658 138.581, 400.539 141.360 M 0.489 328 C 0.489 429.475, 0.607 470.988, 0.750 420.250 C 0.893 369.513, 0.893 286.488, 0.750 235.750 C 0.607 185.013, 0.489 226.525, 0.489 328 M 269 147.500 C 269 148.325, 269.661 149, 270.469 149 C 271.363 149, 271.712 148.414, 271.362 147.500 C 271.045 146.675, 270.384 146, 269.893 146 C 269.402 146, 269 146.675, 269 147.500 M 207.122 152.904 C 206.364 153.384, 206.055 154.280, 206.436 154.896 C 206.925 155.687, 207.549 155.594, 208.564 154.579 C 210.966 152.177, 210.015 151.071, 207.122 152.904 M 216 153 L 213.500 153.801 216.250 153.900 C 217.762 153.955, 219 153.550, 219 153 C 219 152.450, 218.887 152.045, 218.750 152.100 C 218.613 152.155, 217.375 152.560, 216 153 M 131.441 166.552 C 129.555 168.060, 129.563 168.086, 131.750 167.484 C 133.065 167.123, 134 167.309, 134 167.933 C 134 168.957, 132.724 169.377, 130.417 169.113 C 129.821 169.045, 129.333 169.666, 129.333 170.494 C 129.333 171.322, 129.933 172, 130.667 172 C 132.356 172, 132.437 173.989, 130.750 174.030 C 128.946 174.074, 133.149 176.368, 135.343 176.537 C 136.356 176.616, 137.422 176.065, 137.710 175.314 C 138.031 174.477, 138.672 174.283, 139.367 174.812 C 140.564 175.723, 144.985 173.912, 145.313 172.376 C 145.416 171.894, 147.188 171.651, 149.250 171.836 C 152.784 172.153, 154.262 170.898, 152 169.500 C 151.450 169.160, 150.993 169.471, 150.985 170.191 C 150.974 171.147, 150.768 171.184, 150.225 170.329 C 149.815 169.685, 148.134 168.836, 146.490 168.441 C 144.845 168.046, 143.050 167.461, 142.500 167.140 C 140.708 166.094, 138.563 166.089, 137.920 167.129 C 137.527 167.765, 136.699 167.556, 135.717 166.574 C 133.788 164.645, 133.826 164.645, 131.441 166.552 M 104 170.031 C 104 170.564, 104.563 171.007, 105.250 171.015 C 106.083 171.026, 106 171.354, 105 172 C 103.718 172.828, 103.754 172.972, 105.250 172.985 C 107.387 173.003, 107.579 170.436, 105.500 169.638 C 104.675 169.322, 104 169.499, 104 170.031 M 81.250 183.500 C 81.250 184.875, 81.644 186, 82.125 186 C 82.606 186, 83 185.564, 83 185.031 C 83 184.499, 83.629 184.304, 84.399 184.600 C 85.168 184.895, 86.092 184.661, 86.451 184.080 C 86.836 183.457, 86.519 183.247, 85.681 183.569 C 84.898 183.869, 83.989 183.414, 83.660 182.557 C 82.733 180.141, 81.250 180.721, 81.250 183.500 M 165.796 182.750 C 165.604 183.713, 165.629 185.787, 165.853 187.360 C 166.228 190, 166.520 190.177, 169.652 189.669 C 171.551 189.361, 172.800 189.514, 172.489 190.018 C 172.183 190.512, 174.190 189.979, 176.948 188.833 C 181.327 187.013, 182.868 185, 179.882 185 C 179.332 185, 179.203 185.520, 179.595 186.155 C 180.051 186.892, 179.868 187.037, 179.088 186.554 C 178.416 186.139, 178.106 185.561, 178.398 185.268 C 178.691 184.976, 178.480 183.896, 177.930 182.869 C 176.512 180.220, 166.323 180.120, 165.796 182.750 M 449.710 189 C 450.105 190.510, 451.002 190.963, 453.367 190.850 C 456.389 190.706, 456.403 190.686, 453.750 190.284 C 452.223 190.052, 451 189.230, 451 188.434 C 451 187.645, 450.592 187, 450.094 187 C 449.595 187, 449.423 187.900, 449.710 189 M 412.046 190.466 C 410.207 191.822, 408.256 193.081, 407.708 193.264 C 407.072 193.476, 407.120 194.355, 407.841 195.702 C 408.967 197.807, 408.976 197.807, 416.008 195.998 C 419.880 195.002, 423.262 194.145, 423.524 194.094 C 423.786 194.042, 423.887 193.662, 423.750 193.250 C 423.613 192.838, 423.163 192.613, 422.750 192.750 C 422.337 192.887, 422 192.550, 422 192 C 422 191.450, 421.086 191, 419.969 191 C 418.851 191, 417.678 190.325, 417.362 189.500 C 416.584 187.475, 415.942 187.591, 412.046 190.466 M 399.569 192.579 C 398.972 194.961, 398.542 195.187, 395.546 194.701 C 391.906 194.111, 391.043 195.358, 391.014 201.250 C 391.001 203.854, 390.602 204.168, 387 204.402 C 385.895 204.474, 385.348 206.211, 384.923 211 C 384.605 214.575, 384.268 216.214, 384.173 214.643 C 384.034 212.349, 383.655 211.925, 382.250 212.492 C 378.134 214.151, 372.635 214.261, 369.608 212.745 C 367.898 211.889, 363.800 210.682, 360.500 210.063 C 355.192 209.069, 354.385 209.133, 353.500 210.624 C 352.950 211.550, 350.363 215.148, 347.750 218.618 C 345.137 222.088, 343 225.404, 343 225.986 C 343 227.661, 351.706 232.741, 360.175 236.007 C 368.942 239.388, 375.267 239.810, 382.131 237.471 C 392.604 233.903, 402.360 219.082, 405.309 202.259 C 406.305 196.580, 406.222 195.774, 404.391 193.322 C 401.636 189.632, 400.358 189.436, 399.569 192.579 M 508.515 216.819 C 508.140 217.194, 502.809 217.605, 496.667 217.734 C 482.271 218.036, 482.748 217.940, 483.413 220.417 C 483.721 221.563, 483.986 222.950, 484.002 223.500 C 484.018 224.050, 484.411 223.900, 484.876 223.166 C 485.557 222.092, 485.840 222.141, 486.329 223.416 C 486.828 224.716, 486.090 225.018, 482.219 225.101 C 479.623 225.157, 475.925 225.086, 474 224.944 C 463.642 224.177, 435.151 227.226, 433.871 229.238 C 433.479 229.855, 433.098 229.795, 432.860 229.079 C 432.586 228.258, 431.942 228.322, 430.599 229.304 C 429.087 230.410, 428.937 231.051, 429.830 232.589 C 430.910 234.450, 430.940 234.447, 430.985 232.500 C 431.023 230.840, 431.195 230.755, 432 232 C 432.533 232.825, 432.976 233.107, 432.985 232.628 C 432.993 232.148, 433.563 232.195, 434.250 232.733 C 435.704 233.870, 475.936 233.776, 477.789 232.630 C 478.473 232.208, 479 232.390, 479 233.049 C 479 233.807, 479.912 233.988, 481.596 233.565 C 483.074 233.194, 484.796 233.416, 485.596 234.079 C 486.701 234.997, 487 234.907, 487 233.654 C 487 232.581, 487.542 232.271, 488.664 232.701 C 489.872 233.165, 490.104 232.977, 489.510 232.015 C 488.950 231.110, 489.076 230.929, 489.908 231.443 C 491.698 232.549, 500.951 232.655, 501.310 231.573 C 501.485 231.048, 502.211 231.012, 502.985 231.491 C 503.736 231.955, 505.960 232.372, 507.926 232.418 C 511.448 232.499, 511.505 232.436, 511.814 228.118 C 512.074 224.482, 511.862 223.839, 510.564 224.337 C 509.704 224.667, 509 224.501, 509 223.969 C 509 223.436, 509.675 223, 510.500 223 C 511.488 223, 512 222.012, 512 220.107 C 512 217.334, 509.941 215.392, 508.515 216.819 M 500.268 222.525 C 498.643 223.663, 498.051 223.714, 497.662 222.749 C 497.275 221.790, 497.140 221.804, 497.079 222.809 C 497.036 223.529, 496.492 223.804, 495.870 223.420 C 495.185 222.996, 494.923 223.268, 495.204 224.111 C 495.526 225.078, 497.386 225.500, 501.333 225.500 C 506.363 225.500, 507 225.272, 507 223.468 C 507 220.934, 503.282 220.413, 500.268 222.525 M 347.212 236.933 C 348.617 241.272, 349.494 242.571, 351.019 242.571 C 352.109 242.571, 353 242.261, 353 241.881 C 353 241.501, 356.624 241.266, 361.053 241.358 C 365.482 241.451, 368.295 241.221, 367.303 240.848 C 355.045 236.234, 351.033 234.580, 348.443 233.074 L 345.386 231.295 347.212 236.933 M 392.961 232.833 C 392.114 233.750, 389.864 235.690, 387.961 237.145 C 384.380 239.883, 384.334 241.664, 387.874 240.540 C 389.224 240.112, 389.692 239.361, 389.279 238.285 C 388.867 237.211, 389.051 236.913, 389.830 237.395 C 390.494 237.805, 391.007 237.552, 391.017 236.809 C 391.027 236.089, 392.483 234.488, 394.253 233.250 C 396.023 232.012, 396.803 231.037, 395.986 231.083 C 395.169 231.129, 393.807 231.917, 392.961 232.833 M 412.500 233 C 410.572 233.829, 410.579 233.862, 412.691 233.930 C 413.896 233.968, 415.160 233.550, 415.500 233 C 416.231 231.817, 415.252 231.817, 412.500 233 M 397.658 235.723 C 397.930 237.371, 397.635 237.797, 396.521 237.370 C 395.042 236.802, 393.191 239.524, 394.301 240.634 C 395.281 241.614, 406 241.883, 406 240.928 C 406 240.417, 405.475 240, 404.833 240 C 404.192 240, 403.904 239.762, 404.195 239.472 C 404.485 239.182, 406.023 239.447, 407.611 240.061 C 412.233 241.847, 414.353 242.047, 415.141 240.771 C 415.689 239.886, 416.343 239.989, 417.689 241.175 C 418.767 242.125, 420.714 242.622, 422.500 242.402 C 424.150 242.200, 426.175 242.310, 427 242.647 C 427.825 242.984, 430.525 243.380, 433 243.527 C 443.243 244.133, 450.500 244.741, 450.500 244.991 C 450.500 245.361, 455.952 245.993, 459.122 245.990 C 460.565 245.989, 462.285 246.639, 462.946 247.434 C 464.201 248.947, 467.398 248.453, 466.435 246.895 C 466.131 246.403, 466.359 246, 466.941 246 C 467.523 246, 468 246.450, 468 247 C 468 247.550, 468.675 248, 469.500 248 C 470.325 248, 471 248.450, 471 249 C 471 249.550, 471.536 249.888, 472.191 249.750 C 472.845 249.613, 473.566 250.353, 473.792 251.396 C 474.094 252.788, 473.785 253.132, 472.633 252.690 C 471.770 252.358, 470.827 252.471, 470.537 252.940 C 470.248 253.408, 468.484 253.447, 466.618 253.027 C 464.751 252.606, 460.469 252.382, 457.101 252.529 C 453.733 252.677, 448.968 252.193, 446.513 251.454 C 443.744 250.620, 441.824 250.475, 441.456 251.072 C 441.129 251.600, 440.396 251.745, 439.826 251.393 C 439.257 251.041, 436.496 250.573, 433.691 250.354 C 430.886 250.135, 428.257 249.416, 427.849 248.756 C 427.319 247.898, 426.922 248.040, 426.455 249.257 C 425.945 250.585, 425.003 250.835, 422.151 250.399 C 420.143 250.092, 417.432 249.155, 416.127 248.317 C 414.822 247.478, 414.061 247.289, 414.436 247.896 C 414.811 248.503, 414.641 249, 414.059 249 C 413.477 249, 413 248.550, 413 248 C 413 247.450, 412.523 247, 411.941 247 C 411.359 247, 411.098 247.349, 411.362 247.776 C 411.625 248.203, 409.172 248.540, 405.910 248.526 C 401.720 248.508, 400.114 248.148, 400.439 247.301 C 400.707 246.601, 400.321 246.323, 399.512 246.634 C 398.700 246.946, 398.384 247.855, 398.750 248.833 C 399.298 250.295, 399.163 250.328, 397.658 249.103 C 396.276 247.979, 395.427 247.940, 393.311 248.904 C 391.220 249.857, 390.493 249.836, 389.765 248.801 C 389.047 247.782, 388.738 247.769, 388.344 248.741 C 387.961 249.682, 387.479 249.622, 386.348 248.491 C 384.435 246.577, 382.098 246.582, 381.362 248.500 C 381.045 249.325, 380.098 250, 379.258 250 C 378.226 250, 378.555 250.649, 380.273 252 C 381.671 253.100, 383.237 254, 383.753 254 C 384.268 254, 385.547 254.952, 386.595 256.115 C 387.643 257.278, 389.562 258.636, 390.861 259.132 C 393.355 260.086, 408.905 261.443, 417.750 261.479 C 420.638 261.490, 423 261.894, 423 262.375 C 423 262.856, 424.318 262.986, 425.930 262.664 C 427.776 262.295, 429.041 262.526, 429.351 263.289 C 429.725 264.211, 429.861 264.201, 429.921 263.250 C 430.017 261.734, 432.937 261.637, 435 263.081 C 436.157 263.891, 435.956 263.977, 434.125 263.458 C 432.798 263.083, 431.995 263.182, 432.305 263.684 C 432.991 264.794, 423.976 264.795, 422.250 263.686 C 421.516 263.214, 421 263.344, 421 264 C 421 264.615, 420.581 264.859, 420.069 264.543 C 419.557 264.226, 418.877 264.389, 418.558 264.905 C 418.066 265.703, 427.050 272.374, 428.876 272.566 C 429.219 272.602, 431.944 273.389, 434.932 274.316 C 437.919 275.242, 442.330 276, 444.735 276 C 447.750 276, 450.248 276.776, 452.785 278.500 C 454.809 279.875, 457.683 281, 459.173 281 C 460.663 281, 462.148 281.430, 462.473 281.956 C 462.798 282.482, 463.725 282.659, 464.532 282.349 C 465.339 282.040, 466 282.307, 466 282.944 C 466 284.564, 472.965 290.773, 475.992 291.851 C 479.079 292.951, 494.814 296.011, 497.349 296.005 C 498.366 296.002, 500.459 297.350, 502 299 C 503.541 300.650, 505.259 302, 505.818 302 C 506.376 302, 506.983 302.391, 507.167 302.868 C 507.350 303.345, 508.512 304.050, 509.750 304.435 C 511.997 305.134, 512 305.117, 512 293.220 C 512 281.874, 511.893 281.250, 509.750 280.148 L 507.500 278.989 509.750 279.562 C 511.934 280.118, 512 279.916, 512 272.625 L 512 265.115 507.750 264.807 C 503.633 264.510, 503.574 264.458, 505.871 263.150 C 507.175 262.408, 507.965 262.248, 507.627 262.794 C 507.276 263.362, 508.081 263.726, 509.506 263.644 L 511.999 263.500 511.999 250.224 L 512 236.947 506.250 237.065 C 503.087 237.130, 498.250 236.793, 495.500 236.316 C 491.831 235.681, 470.500 235.395, 470.500 235.982 C 470.500 236.024, 466.675 236.254, 462 236.494 C 439.507 237.651, 435.588 238.048, 434.825 239.249 C 434.190 240.249, 434.028 240.249, 434.015 239.250 C 434.007 238.563, 433.523 238, 432.941 238 C 432.359 238, 432.144 238.424, 432.464 238.941 C 432.784 239.459, 431.798 239.797, 430.273 239.691 C 428.748 239.586, 427.194 238.825, 426.820 238 C 426.264 236.772, 426.128 236.818, 426.070 238.250 C 425.991 240.220, 424.009 240.695, 423.985 238.750 C 423.974 237.910, 423.729 237.852, 423.235 238.573 C 422.831 239.163, 421.763 239.917, 420.863 240.248 C 419.605 240.711, 419.318 240.348, 419.624 238.675 C 419.843 237.479, 419.755 237.063, 419.428 237.750 C 418.537 239.623, 416.002 239.255, 415.985 237.250 C 415.972 235.849, 415.793 235.779, 415.086 236.896 C 414.565 237.718, 413.493 238.019, 412.474 237.628 C 411.524 237.264, 410.186 237.431, 409.500 238 C 407.849 239.370, 405.012 238.211, 404.955 236.143 C 404.929 235.187, 404.297 235.755, 403.444 237.500 C 402.349 239.742, 402.084 239.932, 402.395 238.250 C 402.912 235.466, 401.430 235.247, 400.710 238 C 400.328 239.460, 399.420 239.960, 397.344 239.850 L 394.500 239.700 397.144 239.294 C 399.002 239.008, 399.929 238.154, 400.260 236.420 C 400.520 235.063, 400.273 233.668, 399.711 233.322 C 399.150 232.975, 398.993 233.179, 399.362 233.776 C 399.731 234.373, 399.609 235.123, 399.092 235.443 C 398.575 235.763, 397.958 235.456, 397.721 234.762 C 397.485 234.068, 397.457 234.501, 397.658 235.723 M 392.954 237.086 C 391.367 240.052, 392.173 240.242, 394.297 237.402 C 395.285 236.081, 395.638 235, 395.082 235 C 394.526 235, 393.568 235.939, 392.954 237.086 M 378 241 C 375.940 241.660, 375.852 241.816, 377.500 241.885 C 378.600 241.931, 380.175 241.533, 381 241 C 382.752 239.868, 381.536 239.868, 378 241 M 448.333 262.716 C 448.333 263.808, 449.303 264.086, 452.167 263.813 C 454.275 263.612, 456 263.812, 456 264.258 C 456 265.324, 459.969 264.731, 462.492 263.289 C 465.639 261.489, 463.466 260.621, 460.062 262.319 C 457.882 263.407, 457 263.504, 457 262.656 C 457 261.934, 455.293 261.423, 452.667 261.359 C 449.484 261.282, 448.333 261.642, 448.333 262.716 M 466.211 262.538 C 465.129 263.764, 465.250 264, 466.961 264 C 468.107 264, 469 263.343, 469 262.500 C 469 260.621, 467.888 260.637, 466.211 262.538 M 473.869 262.342 C 474.481 263.080, 474.799 263.868, 474.575 264.092 C 474.350 264.316, 475.661 264.500, 477.488 264.500 C 479.314 264.500, 480.553 264.086, 480.240 263.580 C 479.928 263.074, 480.421 262.947, 481.336 263.299 C 482.423 263.716, 483 263.428, 483 262.469 C 483 260.811, 480.446 260.469, 479.500 262 C 479.160 262.550, 478.207 263, 477.382 263 C 476.557 263, 476.160 262.550, 476.500 262 C 476.840 261.450, 476.136 261, 474.937 261 C 473.225 261, 472.995 261.289, 473.869 262.342 M 500 262.531 C 500 264.212, 498.425 264.496, 497.490 262.984 C 497.144 262.425, 496.366 262.274, 495.760 262.648 C 494.194 263.616, 498.858 265.180, 501.145 264.454 C 503.384 263.743, 503.551 262.425, 501.500 261.638 C 500.586 261.288, 500 261.637, 500 262.531 M 485.250 262.728 C 482.563 263.671, 484.203 264.534, 487.994 264.172 C 490.191 263.962, 491.775 263.444, 491.513 263.020 C 490.999 262.189, 487.281 262.015, 485.250 262.728 M 378 271.039 C 378 271.503, 378.439 272.153, 378.976 272.485 C 380.709 273.556, 386.731 285.295, 389.402 292.810 C 395.126 308.913, 394.947 320.204, 388.775 332.460 C 384.827 340.299, 374.458 350.435, 365.718 355 C 362.033 356.925, 359.013 359.048, 359.008 359.718 C 359.004 360.388, 362.937 362.100, 367.750 363.523 C 380.832 367.390, 390.380 371.521, 401.500 378.125 C 417.123 387.404, 431.908 398.986, 441.643 409.572 C 446.514 414.870, 451.778 419.867, 453.341 420.675 C 455.917 422.008, 456.370 421.975, 458.194 420.324 C 461.173 417.628, 460.303 409.526, 456.423 403.829 C 451.837 397.097, 451.514 396.326, 454.374 398.945 C 458.414 402.644, 462.302 411.291, 461.812 415.487 C 461.357 419.383, 462.731 420.092, 465.227 417.250 C 469.166 412.764, 468.545 405.948, 463.423 397.442 C 459.599 391.092, 459.279 390.157, 461.582 392.068 C 464.125 394.178, 469 404.669, 469 408.031 C 469 409.834, 469.416 410.861, 470 410.500 C 470.550 410.160, 471 408.251, 471 406.257 C 471 395.645, 455.811 379.407, 437.123 370.040 C 428.200 365.567, 395.280 354.774, 390.730 354.829 C 388.627 354.855, 387.215 354.460, 387.539 353.938 C 387.857 353.422, 388.654 352.996, 389.309 352.990 C 391.926 352.969, 401.024 347.974, 405.052 344.347 C 418.611 332.140, 422.612 313.810, 415.063 298.477 C 409.296 286.763, 395.725 275.530, 382.547 271.564 C 380.046 270.811, 378 270.575, 378 271.039 M 504.474 279.957 C 504.930 280.695, 504.681 281.588, 503.878 282.096 C 502.788 282.787, 502.866 282.973, 504.250 282.985 C 506.211 283.002, 506.626 280.505, 504.845 279.405 C 504.094 278.940, 503.964 279.133, 504.474 279.957" stroke="none" fill="#36acc1" fill-rule="evenodd"/></svg>